<svg xmlns="http://www.w3.org/2000/svg" width="422" height="440" style="background-color: #808d81">
<text x="19" y="30" text-anchor="start" dominant-baseline="middle" font-size="120%" rotate="0">モジュール名: OOOOO</text>
<circle cx="0" cy="90" r="9" fill="white" stroke="black"/>
<text x="19" y="90" text-anchor="start" dominant-baseline="middle" font-size="100%" rotate="0">シンプルな処理</text>
<line x1="0" y1="99" x2="0" y2="108" stroke="black"/>
<line x1="-9" y1="108" x2="9" y2="108" stroke="black"/>
<circle cx="30" cy="120" r="9" fill="white" stroke="black"/>
<text x="49" y="120" text-anchor="start" dominant-baseline="middle" font-size="100%" rotate="0">初期化</text>
<line x1="30" y1="102" x2="30" y2="111" stroke="black"/>
<line x1="21" y1="102" x2="39" y2="102" stroke="black"/>
<circle cx="60" cy="150" r="9" fill="white" stroke="black"/>
<text x="79" y="150" text-anchor="start" dominant-baseline="middle" font-size="100%" rotate="0">何もしない</text>
<line x1="60" y1="159" x2="60" y2="168" stroke="black"/>
<line x1="51" y1="168" x2="69" y2="168" stroke="black"/>
<line x1="60" y1="132" x2="60" y2="141" stroke="black"/>
<line x1="42" y1="132" x2="60" y2="132" stroke="black"/>
<line x1="42" y1="114" x2="42" y2="132" stroke="black"/>
<circle cx="30" cy="180" r="9" fill="white" stroke="black"/>
<text x="49" y="180" text-anchor="start" dominant-baseline="middle" font-size="100%" rotate="0">メイン処理</text>
<line x1="30" y1="129" x2="30" y2="171" stroke="black"/>
<circle cx="60" cy="210" r="9" fill="white" stroke="black"/>
<polygon points="67 210 56 216 56 203" fill="white" stroke="black"/>
<text x="79" y="210" text-anchor="start" dominant-baseline="middle" font-size="100%" rotate="0">入力で分岐する</text>
<line x1="60" y1="219" x2="60" y2="228" stroke="black"/>
<line x1="51" y1="228" x2="69" y2="228" stroke="black"/>
<line x1="60" y1="192" x2="60" y2="201" stroke="black"/>
<line x1="42" y1="192" x2="60" y2="192" stroke="black"/>
<line x1="42" y1="174" x2="42" y2="192" stroke="black"/>
<line x1="90" y1="231" x2="90" y2="249" stroke="black"/>
<line x1="90" y1="231" x2="105" y2="231" stroke="black"/>
<path d="M 105 231 L 97 227 L 97 235" stroke="black" fill="black" />
<text x="109" y="240" text-anchor="start" dominant-baseline="middle" font-size="100%" rotate="0">(true) 条件を満足した</text>
<line x1="90" y1="222" x2="90" y2="231" stroke="black"/>
<line x1="72" y1="222" x2="90" y2="222" stroke="black"/>
<line x1="72" y1="204" x2="72" y2="222" stroke="black"/>
<circle cx="120" cy="270" r="9" fill="white" stroke="black"/>
<text x="139" y="270" text-anchor="start" dominant-baseline="middle" font-size="100%" rotate="0">出力更新</text>
<line x1="120" y1="279" x2="120" y2="288" stroke="black"/>
<line x1="111" y1="288" x2="129" y2="288" stroke="black"/>
<line x1="120" y1="252" x2="120" y2="261" stroke="black"/>
<line x1="102" y1="252" x2="120" y2="252" stroke="black"/>
<line x1="102" y1="234" x2="102" y2="252" stroke="black"/>
<line x1="90" y1="291" x2="90" y2="309" stroke="black"/>
<line x1="90" y1="291" x2="105" y2="291" stroke="black"/>
<path d="M 105 291 L 97 287 L 97 295" stroke="black" fill="black" />
<text x="109" y="300" text-anchor="start" dominant-baseline="middle" font-size="100%" rotate="0">(false) 条件を満足しない</text>
<line x1="90" y1="249" x2="90" y2="291" stroke="black"/>
<line x1="90" y1="309" x2="90" y2="318" stroke="black"/>
<line x1="81" y1="318" x2="99" y2="318" stroke="black"/>
<circle cx="120" cy="330" r="9" fill="white" stroke="black"/>
<text x="139" y="330" text-anchor="start" dominant-baseline="middle" font-size="100%" rotate="0">出力更新</text>
<line x1="120" y1="339" x2="120" y2="348" stroke="black"/>
<line x1="111" y1="348" x2="129" y2="348" stroke="black"/>
<line x1="120" y1="312" x2="120" y2="321" stroke="black"/>
<line x1="102" y1="312" x2="120" y2="312" stroke="black"/>
<line x1="102" y1="294" x2="102" y2="312" stroke="black"/>
<circle cx="30" cy="360" r="9" fill="white" stroke="black"/>
<text x="49" y="360" text-anchor="start" dominant-baseline="middle" font-size="100%" rotate="0">後処理</text>
<line x1="30" y1="189" x2="30" y2="351" stroke="black"/>
<line x1="30" y1="369" x2="30" y2="378" stroke="black"/>
<line x1="21" y1="378" x2="39" y2="378" stroke="black"/>
<circle cx="60" cy="390" r="9" fill="white" stroke="black"/>
<text x="79" y="390" text-anchor="start" dominant-baseline="middle" font-size="100%" rotate="0">何もしない</text>
<line x1="60" y1="399" x2="60" y2="408" stroke="black"/>
<line x1="51" y1="408" x2="69" y2="408" stroke="black"/>
<line x1="60" y1="372" x2="60" y2="381" stroke="black"/>
<line x1="42" y1="372" x2="60" y2="372" stroke="black"/>
<line x1="42" y1="354" x2="42" y2="372" stroke="black"/>
<line x1="141" y1="85" x2="331" y2="85" stroke="black"/>
<path d="M 141 85 L 149 81 L 149 89" stroke="black" fill="black" />
<line x1="141" y1="95" x2="341" y2="95" stroke="red"/>
<line x1="201" y1="205" x2="351" y2="205" stroke="green"/>
<path d="M 201 205 L 209 201 L 209 209" stroke="green" fill="green" />
<line x1="213" y1="275" x2="361" y2="275" stroke="blue"/>
<line x1="213" y1="335" x2="371" y2="335" stroke="yellow"/>
<rect x="362" y="81" width="18" height="18" fill="white" stroke="black"/>
<text x="390" y="90" text-anchor="start" dominant-baseline="middle" font-size="100%" rotate="0">ssss</text>
<rect x="362" y="111" width="18" height="18" fill="white" stroke="black"/>
<text x="390" y="120" text-anchor="start" dominant-baseline="middle" font-size="100%" rotate="0">fff</text>
<line x1="331" y1="85" x2="362" y2="85" stroke="black"/>
<line x1="351" y1="85" x2="362" y2="85" stroke="green"/>
<line x1="341" y1="125" x2="362" y2="125" stroke="red"/>
<path d="M 362 125 L 354 121 L 354 129" stroke="red" fill="red" />
<line x1="361" y1="125" x2="362" y2="125" stroke="blue"/>
<path d="M 362 125 L 354 121 L 354 129" stroke="blue" fill="blue" />
<line x1="371" y1="125" x2="380" y2="125" stroke="yellow"/>
<path d="M 380 125 L 372 121 L 372 129" stroke="yellow" fill="yellow" />
<line x1="331" y1="85" x2="331" y2="85" stroke="black"/>
<line x1="341" y1="95" x2="341" y2="125" stroke="red"/>
<line x1="351" y1="85" x2="351" y2="205" stroke="green"/>
<line x1="361" y1="125" x2="361" y2="275" stroke="blue"/>
<line x1="371" y1="125" x2="371" y2="335" stroke="yellow"/>
</svg>