<svg xmlns="http://www.w3.org/2000/svg" width="694" height="350" style="background-color: #808d81">
<rect x="0" y="0" width="694" height="350" fill="#808d81" stroke="#808d81"/>
<text x="19" y="30" text-anchor="start" dominant-baseline="middle" font-size="120%" rotate="0">モジュール名: 2バイト文字のタイトル</text>
<circle cx="30" cy="90" r="9" fill="white" stroke="black"/>
<text x="49" y="90" text-anchor="start" dominant-baseline="middle" font-size="100%" rotate="0">begin process</text>
<line x1="30" y1="72" x2="30" y2="81" stroke="black"/>
<line x1="21" y1="72" x2="39" y2="72" stroke="black"/>
<line x1="30" y1="99" x2="30" y2="108" stroke="black"/>
<line x1="21" y1="108" x2="39" y2="108" stroke="black"/>
<circle cx="60" cy="120" r="9" fill="white" stroke="black"/>
<text x="79" y="120" text-anchor="start" dominant-baseline="middle" font-size="100%" rotate="0">initialize</text>
<line x1="60" y1="102" x2="60" y2="111" stroke="black"/>
<line x1="42" y1="102" x2="60" y2="102" stroke="black"/>
<line x1="42" y1="84" x2="42" y2="102" stroke="black"/>
<circle cx="90" cy="150" r="9" fill="white" stroke="black"/>
<text x="109" y="150" text-anchor="start" dominant-baseline="middle" font-size="100%" rotate="0">pre data</text>
<line x1="90" y1="132" x2="90" y2="141" stroke="black"/>
<line x1="72" y1="132" x2="90" y2="132" stroke="black"/>
<line x1="72" y1="114" x2="72" y2="132" stroke="black"/>
<circle cx="90" cy="180" r="9" fill="white" stroke="black"/>
<text x="109" y="180" text-anchor="start" dominant-baseline="middle" font-size="100%" rotate="0">get data :補足</text>
<line x1="90" y1="159" x2="90" y2="171" stroke="black"/>
<line x1="90" y1="189" x2="90" y2="198" stroke="black"/>
<line x1="81" y1="198" x2="99" y2="198" stroke="black"/>
<circle cx="60" cy="210" r="9" fill="white" stroke="black"/>
<text x="79" y="210" text-anchor="start" dominant-baseline="middle" font-size="100%" rotate="0">any</text>
<line x1="60" y1="129" x2="60" y2="201" stroke="black"/>
<circle cx="90" cy="240" r="9" fill="white" stroke="black"/>
<text x="109" y="240" text-anchor="start" dominant-baseline="middle" font-size="100%" rotate="0">update  :補足 *データ+データ1</text>
<line x1="90" y1="249" x2="90" y2="258" stroke="black"/>
<line x1="81" y1="258" x2="99" y2="258" stroke="black"/>
<line x1="90" y1="222" x2="90" y2="231" stroke="black"/>
<line x1="72" y1="222" x2="90" y2="222" stroke="black"/>
<line x1="72" y1="204" x2="72" y2="222" stroke="black"/>
<circle cx="60" cy="270" r="9" fill="white" stroke="black"/>
<text x="79" y="270" text-anchor="start" dominant-baseline="middle" font-size="100%" rotate="0">finalize</text>
<line x1="60" y1="219" x2="60" y2="261" stroke="black"/>
<line x1="60" y1="279" x2="60" y2="288" stroke="black"/>
<line x1="51" y1="288" x2="69" y2="288" stroke="black"/>
<circle cx="90" cy="300" r="9" fill="white" stroke="black"/>
<text x="109" y="300" text-anchor="start" dominant-baseline="middle" font-size="100%" rotate="0">result *データ+データ1 ^でた~</text>
<line x1="90" y1="309" x2="90" y2="318" stroke="black"/>
<line x1="81" y1="318" x2="99" y2="318" stroke="black"/>
<line x1="90" y1="282" x2="90" y2="291" stroke="black"/>
<line x1="72" y1="282" x2="90" y2="282" stroke="black"/>
<line x1="72" y1="264" x2="72" y2="282" stroke="black"/>
<line x1="188" y1="155" x2="394" y2="155" stroke="black"/>
<line x1="236" y1="185" x2="404" y2="185" stroke="red"/>
<line x1="364" y1="235" x2="414" y2="235" stroke="green"/>
<path d="M 364 235 L 372 231 L 372 239" stroke="green" fill="green" />
<line x1="364" y1="235" x2="424" y2="235" stroke="blue"/>
<path d="M 364 235 L 372 231 L 372 239" stroke="blue" fill="blue" />
<line x1="364" y1="245" x2="434" y2="245" stroke="yellow"/>
<line x1="364" y1="295" x2="444" y2="295" stroke="purple"/>
<path d="M 364 295 L 372 291 L 372 299" stroke="purple" fill="purple" />
<line x1="364" y1="305" x2="454" y2="305" stroke="orange"/>
<rect x="475" y="81" width="18" height="18" fill="white" stroke="black"/>
<text x="503" y="90" text-anchor="start" dominant-baseline="middle" font-size="100%" rotate="0">データ1</text>
<rect x="475" y="111" width="18" height="18" fill="white" stroke="black"/>
<text x="503" y="120" text-anchor="start" dominant-baseline="middle" font-size="100%" rotate="0">データ:補足</text>
<rect x="475" y="141" width="18" height="18" fill="white" stroke="black"/>
<text x="503" y="150" text-anchor="start" dominant-baseline="middle" font-size="100%" rotate="0">データ*データ+データ1</text>
<rect x="475" y="171" width="18" height="18" fill="white" stroke="black"/>
<text x="503" y="180" text-anchor="start" dominant-baseline="middle" font-size="100%" rotate="0">データ^でた~</text>
<rect x="475" y="201" width="18" height="18" fill="white" stroke="black"/>
<text x="503" y="210" text-anchor="start" dominant-baseline="middle" font-size="100%" rotate="0">データ</text>
<line x1="394" y1="95" x2="475" y2="95" stroke="black"/>
<path d="M 475 95 L 467 91 L 467 99" stroke="black" fill="black" />
<line x1="414" y1="85" x2="475" y2="85" stroke="green"/>
<line x1="404" y1="215" x2="475" y2="215" stroke="red"/>
<path d="M 475 215 L 467 211 L 467 219" stroke="red" fill="red" />
<line x1="424" y1="205" x2="475" y2="205" stroke="blue"/>
<line x1="434" y1="215" x2="475" y2="215" stroke="yellow"/>
<path d="M 475 215 L 467 211 L 467 219" stroke="yellow" fill="yellow" />
<line x1="444" y1="205" x2="475" y2="205" stroke="purple"/>
<line x1="454" y1="215" x2="475" y2="215" stroke="orange"/>
<path d="M 475 215 L 467 211 L 467 219" stroke="orange" fill="orange" />
<line x1="394" y1="95" x2="394" y2="155" stroke="black"/>
<line x1="404" y1="185" x2="404" y2="215" stroke="red"/>
<line x1="414" y1="85" x2="414" y2="235" stroke="green"/>
<line x1="424" y1="205" x2="424" y2="235" stroke="blue"/>
<line x1="434" y1="215" x2="434" y2="245" stroke="yellow"/>
<line x1="444" y1="205" x2="444" y2="295" stroke="purple"/>
<line x1="454" y1="215" x2="454" y2="305" stroke="orange"/>
</svg>