<svg xmlns="http://www.w3.org/2000/svg" width="394" height="320" style="background-color: #808d81">
<rect x="0" y="0" width="394" height="320" fill="#808d81" stroke="#808d81"/>
<text x="19" y="30" text-anchor="start" dominant-baseline="middle" font-family="Consolas, Courier New, monospace" font-size="18px" rotate="0">モジュール名: DDDDDDD</text>
<circle cx="30" cy="90" r="9" fill="white" stroke="black"/>
<text x="49" y="90" text-anchor="start" dominant-baseline="middle" font-family="Consolas, Courier New, monospace" font-size="12px" rotate="0">/* テスト的なモジュール */</text>
<line x1="30" y1="72" x2="30" y2="81" stroke="black"/>
<line x1="21" y1="72" x2="39" y2="72" stroke="black"/>
<line x1="30" y1="99" x2="30" y2="108" stroke="black"/>
<line x1="21" y1="108" x2="39" y2="108" stroke="black"/>
<circle cx="60" cy="120" r="9" fill="white" stroke="black"/>
<text x="79" y="120" text-anchor="start" dominant-baseline="middle" font-family="Consolas, Courier New, monospace" font-size="12px" rotate="0">取得</text>
<line x1="60" y1="102" x2="60" y2="111" stroke="black"/>
<line x1="42" y1="102" x2="60" y2="102" stroke="black"/>
<line x1="42" y1="84" x2="42" y2="102" stroke="black"/>
<circle cx="90" cy="150" r="9" fill="white" stroke="black"/>
<text x="109" y="150" text-anchor="start" dominant-baseline="middle" font-family="Consolas, Courier New, monospace" font-size="12px" rotate="0">/* なにもしない */</text>
<line x1="90" y1="159" x2="90" y2="168" stroke="black"/>
<line x1="81" y1="168" x2="99" y2="168" stroke="black"/>
<line x1="90" y1="132" x2="90" y2="141" stroke="black"/>
<line x1="72" y1="132" x2="90" y2="132" stroke="black"/>
<line x1="72" y1="114" x2="72" y2="132" stroke="black"/>
<circle cx="60" cy="180" r="9" fill="white" stroke="black"/>
<text x="79" y="180" text-anchor="start" dominant-baseline="middle" font-family="Consolas, Courier New, monospace" font-size="12px" rotate="0">比較</text>
<line x1="60" y1="129" x2="60" y2="171" stroke="black"/>
<circle cx="90" cy="210" r="9" fill="white" stroke="black"/>
<text x="109" y="210" text-anchor="start" dominant-baseline="middle" font-family="Consolas, Courier New, monospace" font-size="12px" rotate="0">// 何もしない</text>
<line x1="90" y1="219" x2="90" y2="228" stroke="black"/>
<line x1="81" y1="228" x2="99" y2="228" stroke="black"/>
<line x1="90" y1="192" x2="90" y2="201" stroke="black"/>
<line x1="72" y1="192" x2="90" y2="192" stroke="black"/>
<line x1="72" y1="174" x2="72" y2="192" stroke="black"/>
<circle cx="60" cy="240" r="9" fill="white" stroke="black"/>
<text x="79" y="240" text-anchor="start" dominant-baseline="middle" font-family="Consolas, Courier New, monospace" font-size="12px" rotate="0">更新</text>
<line x1="60" y1="189" x2="60" y2="231" stroke="black"/>
<line x1="60" y1="249" x2="60" y2="258" stroke="black"/>
<line x1="51" y1="258" x2="69" y2="258" stroke="black"/>
<circle cx="90" cy="270" r="9" fill="white" stroke="black"/>
<text x="109" y="270" text-anchor="start" dominant-baseline="middle" font-family="Consolas, Courier New, monospace" font-size="12px" rotate="0">何もしない</text>
<line x1="90" y1="279" x2="90" y2="288" stroke="black"/>
<line x1="81" y1="288" x2="99" y2="288" stroke="black"/>
<line x1="90" y1="252" x2="90" y2="261" stroke="black"/>
<line x1="72" y1="252" x2="90" y2="252" stroke="black"/>
<line x1="72" y1="234" x2="72" y2="252" stroke="black"/>
<line x1="232" y1="155" x2="262" y2="155" stroke="black"/>
<line x1="208" y1="205" x2="272" y2="205" stroke="red"/>
<path d="M 208 205 L 216 201 L 216 209" stroke="red" fill="red" />
<line x1="184" y1="275" x2="282" y2="275" stroke="green"/>
<rect x="303" y="81" width="18" height="18" fill="white" stroke="black"/>
<text x="331" y="90" text-anchor="start" dominant-baseline="middle" font-family="Consolas, Courier New, monospace" font-size="12px" rotate="0">hogehoge</text>
<rect x="303" y="111" width="18" height="18" fill="white" stroke="black"/>
<text x="331" y="120" text-anchor="start" dominant-baseline="middle" font-family="Consolas, Courier New, monospace" font-size="12px" rotate="0">fizz</text>
<rect x="303" y="141" width="18" height="18" fill="white" stroke="black"/>
<text x="331" y="150" text-anchor="start" dominant-baseline="middle" font-family="Consolas, Courier New, monospace" font-size="12px" rotate="0">buzz</text>
<rect x="303" y="171" width="18" height="18" fill="white" stroke="black"/>
<text x="331" y="180" text-anchor="start" dominant-baseline="middle" font-family="Consolas, Courier New, monospace" font-size="12px" rotate="0">temp</text>
<line x1="282" y1="85" x2="303" y2="85" stroke="green"/>
<path d="M 303 85 L 295 81 L 295 89" stroke="green" fill="green" />
<line x1="262" y1="175" x2="303" y2="175" stroke="black"/>
<path d="M 303 175 L 295 171 L 295 179" stroke="black" fill="black" />
<line x1="272" y1="185" x2="303" y2="185" stroke="red"/>
<line x1="262" y1="155" x2="262" y2="175" stroke="black"/>
<line x1="272" y1="185" x2="272" y2="205" stroke="red"/>
<line x1="282" y1="85" x2="282" y2="275" stroke="green"/>
</svg>