<svg xmlns="http://www.w3.org/2000/svg" width="358" height="260" style="background-color: #808d81">
<circle cx="30" cy="30" r="9" fill="white" stroke="black"/>
<text x="49" y="30" text-anchor="start" dominant-baseline="middle" font-size="100%" rotate="0">シンプルな処理</text>
<line x1="30" y1="12" x2="30" y2="21" stroke="black"/>
<line x1="21" y1="12" x2="39" y2="12" stroke="black"/>
<line x1="30" y1="39" x2="30" y2="48" stroke="black"/>
<line x1="21" y1="48" x2="39" y2="48" stroke="black"/>
<circle cx="60" cy="60" r="9" fill="white" stroke="black"/>
<text x="79" y="60" text-anchor="start" dominant-baseline="middle" font-size="100%" rotate="0">初期化</text>
<line x1="60" y1="42" x2="60" y2="51" stroke="black"/>
<line x1="42" y1="42" x2="60" y2="42" stroke="black"/>
<line x1="42" y1="24" x2="42" y2="42" stroke="black"/>
<circle cx="90" cy="90" r="9" fill="white" stroke="black"/>
<circle cx="90" cy="90" r="4" fill="white" stroke="black"/>
<text x="109" y="90" text-anchor="start" dominant-baseline="middle" font-size="100%" rotate="0">何もしない</text>
<line x1="90" y1="99" x2="90" y2="108" stroke="black"/>
<line x1="81" y1="108" x2="99" y2="108" stroke="black"/>
<line x1="90" y1="72" x2="90" y2="81" stroke="black"/>
<line x1="72" y1="72" x2="90" y2="72" stroke="black"/>
<line x1="72" y1="54" x2="72" y2="72" stroke="black"/>
<circle cx="60" cy="120" r="9" fill="white" stroke="black"/>
<text x="79" y="120" text-anchor="start" dominant-baseline="middle" font-size="100%" rotate="0">メイン処理</text>
<line x1="60" y1="69" x2="60" y2="111" stroke="black"/>
<circle cx="90" cy="150" r="9" fill="white" stroke="black"/>
<text x="109" y="150" text-anchor="start" dominant-baseline="middle" font-size="100%" rotate="0">何もしない</text>
<line x1="90" y1="159" x2="90" y2="168" stroke="black"/>
<line x1="81" y1="168" x2="99" y2="168" stroke="black"/>
<line x1="90" y1="132" x2="90" y2="141" stroke="black"/>
<line x1="72" y1="132" x2="90" y2="132" stroke="black"/>
<line x1="72" y1="114" x2="72" y2="132" stroke="black"/>
<circle cx="60" cy="180" r="9" fill="white" stroke="black"/>
<text x="79" y="180" text-anchor="start" dominant-baseline="middle" font-size="100%" rotate="0">後処理</text>
<line x1="60" y1="129" x2="60" y2="171" stroke="black"/>
<line x1="60" y1="189" x2="60" y2="198" stroke="black"/>
<line x1="51" y1="198" x2="69" y2="198" stroke="black"/>
<circle cx="90" cy="210" r="9" fill="white" stroke="black"/>
<text x="109" y="210" text-anchor="start" dominant-baseline="middle" font-size="100%" rotate="0">何もしない</text>
<line x1="90" y1="219" x2="90" y2="228" stroke="black"/>
<line x1="81" y1="228" x2="99" y2="228" stroke="black"/>
<line x1="90" y1="192" x2="90" y2="201" stroke="black"/>
<line x1="72" y1="192" x2="90" y2="192" stroke="black"/>
<line x1="72" y1="174" x2="72" y2="192" stroke="black"/>
<line x1="199" y1="85" x2="219" y2="85" stroke="black"/>
<path d="M 199 85 L 207 81 L 207 89" stroke="black" fill="black" />
<line x1="199" y1="155" x2="229" y2="155" stroke="red"/>
<rect x="250" y="21" width="18" height="18" fill="white" stroke="black"/>
<text x="278" y="30" text-anchor="start" dominant-baseline="middle" font-size="100%" rotate="0">bbb</text>
<rect x="250" y="51" width="18" height="18" fill="white" stroke="black"/>
<text x="278" y="60" text-anchor="start" dominant-baseline="middle" font-size="100%" rotate="0">データaaa</text>
<line x1="219" y1="25" x2="250" y2="25" stroke="black"/>
<line x1="229" y1="65" x2="250" y2="65" stroke="red"/>
<path d="M 250 65 L 242 61 L 242 69" stroke="red" fill="red" />
<line x1="219" y1="25" x2="219" y2="85" stroke="black"/>
<line x1="229" y1="65" x2="229" y2="155" stroke="red"/>
</svg>