<svg xmlns="http://www.w3.org/2000/svg" width="476" height="890" style="background-color: #808d81">
<circle cx="30" cy="30" r="9" fill="white" stroke="black"/>
<text x="49" y="30" text-anchor="left" dominant-baseline="middle" font-size="100%" rotate="0">処理開始</text>
<line x1="30" y1="12" x2="30" y2="21" stroke="black"/>
<line x1="21" y1="12" x2="39" y2="12" stroke="black"/>
<circle cx="30" cy="60" r="9" fill="white" stroke="black"/>
<text x="49" y="60" text-anchor="left" dominant-baseline="middle" font-size="100%" rotate="0">処理レベル0-1</text>
<line x1="30" y1="39" x2="30" y2="51" stroke="black"/>
<circle cx="30" cy="90" r="9" fill="white" stroke="black"/>
<text x="49" y="90" text-anchor="left" dominant-baseline="middle" font-size="100%" rotate="0">処理レベル0-2</text>
<line x1="30" y1="69" x2="30" y2="81" stroke="black"/>
<circle cx="60" cy="120" r="9" fill="white" stroke="black"/>
<text x="79" y="120" text-anchor="left" dominant-baseline="middle" font-size="100%" rotate="0">必要な情報を揃える</text>
<line x1="60" y1="102" x2="60" y2="111" stroke="black"/>
<line x1="42" y1="102" x2="60" y2="102" stroke="black"/>
<line x1="42" y1="84" x2="42" y2="102" stroke="black"/>
<circle cx="90" cy="150" r="9" fill="white" stroke="black"/>
<text x="109" y="150" text-anchor="left" dominant-baseline="middle" font-size="100%" rotate="0">排他を取得</text>
<line x1="90" y1="132" x2="90" y2="141" stroke="black"/>
<line x1="72" y1="132" x2="90" y2="132" stroke="black"/>
<line x1="72" y1="114" x2="72" y2="132" stroke="black"/>
<circle cx="90" cy="180" r="9" fill="white" stroke="black"/>
<text x="98" y="179" text-anchor="left" dominant-baseline="middle" font-size="100%" rotate="240">↻</text>
<text x="109" y="180" text-anchor="left" dominant-baseline="middle" font-size="100%" rotate="0">DBから取得</text>
<line x1="90" y1="159" x2="90" y2="171" stroke="black"/>
<circle cx="90" cy="210" r="9" fill="white" stroke="black"/>
<text x="109" y="210" text-anchor="left" dominant-baseline="middle" font-size="100%" rotate="0">排他を解放</text>
<line x1="90" y1="189" x2="90" y2="201" stroke="black"/>
<circle cx="90" cy="240" r="9" fill="white" stroke="black"/>
<text x="109" y="240" text-anchor="left" dominant-baseline="middle" font-size="100%" rotate="0">機能Bの実行</text>
<line x1="90" y1="219" x2="90" y2="231" stroke="black"/>
<line x1="90" y1="249" x2="90" y2="258" stroke="black"/>
<line x1="81" y1="258" x2="99" y2="258" stroke="black"/>
<circle cx="120" cy="270" r="9" fill="white" stroke="black"/>
<text x="139" y="270" text-anchor="left" dominant-baseline="middle" font-size="100%" rotate="0">機能Bの前処理</text>
<line x1="120" y1="252" x2="120" y2="261" stroke="black"/>
<line x1="102" y1="252" x2="120" y2="252" stroke="black"/>
<line x1="102" y1="234" x2="102" y2="252" stroke="black"/>
<circle cx="120" cy="300" r="9" fill="white" stroke="black"/>
<text x="139" y="300" text-anchor="left" dominant-baseline="middle" font-size="100%" rotate="0">機能Bの後処理</text>
<line x1="120" y1="279" x2="120" y2="291" stroke="black"/>
<line x1="120" y1="321" x2="120" y2="330" stroke="black"/>
<polygon points="120 339 112 325 127 325" fill="white" stroke="black"/>
<line x1="111" y1="339" x2="129" y2="339" stroke="black"/>
<text x="118" y="331" text-anchor="left" dominant-baseline="middle" font-size="50%" rotate="0">2</text>
<line x1="120" y1="309" x2="120" y2="321" stroke="black"/>
<circle cx="60" cy="360" r="9" fill="white" stroke="black"/>
<text x="79" y="360" text-anchor="left" dominant-baseline="middle" font-size="100%" rotate="0">処理終了</text>
<line x1="60" y1="129" x2="60" y2="351" stroke="black"/>
<line x1="60" y1="369" x2="60" y2="378" stroke="black"/>
<line x1="51" y1="378" x2="69" y2="378" stroke="black"/>
<circle cx="90" cy="390" r="9" fill="white" stroke="black"/>
<text x="109" y="390" text-anchor="left" dominant-baseline="middle" font-size="100%" rotate="0">戻り値を返す</text>
<line x1="90" y1="399" x2="90" y2="408" stroke="black"/>
<line x1="81" y1="408" x2="99" y2="408" stroke="black"/>
<line x1="90" y1="372" x2="90" y2="381" stroke="black"/>
<line x1="72" y1="372" x2="90" y2="372" stroke="black"/>
<line x1="72" y1="354" x2="72" y2="372" stroke="black"/>
<line x1="120" y1="411" x2="120" y2="420" stroke="black"/>
<polygon points="120 429 112 415 127 415" fill="white" stroke="black"/>
<line x1="111" y1="429" x2="129" y2="429" stroke="black"/>
<line x1="120" y1="402" x2="120" y2="411" stroke="black"/>
<line x1="102" y1="402" x2="120" y2="402" stroke="black"/>
<line x1="102" y1="384" x2="102" y2="402" stroke="black"/>
<circle cx="30" cy="450" r="9" fill="white" stroke="black"/>
<text x="49" y="450" text-anchor="left" dominant-baseline="middle" font-size="100%" rotate="0">処理開始</text>
<line x1="30" y1="99" x2="30" y2="441" stroke="black"/>
<circle cx="30" cy="480" r="9" fill="white" stroke="black"/>
<text x="49" y="480" text-anchor="left" dominant-baseline="middle" font-size="100%" rotate="0">処理レベル0-1</text>
<line x1="30" y1="459" x2="30" y2="471" stroke="black"/>
<circle cx="30" cy="510" r="9" fill="white" stroke="black"/>
<text x="49" y="510" text-anchor="left" dominant-baseline="middle" font-size="100%" rotate="0">処理レベル0-2</text>
<line x1="30" y1="489" x2="30" y2="501" stroke="black"/>
<line x1="30" y1="519" x2="30" y2="528" stroke="black"/>
<line x1="21" y1="528" x2="39" y2="528" stroke="black"/>
<circle cx="60" cy="540" r="9" fill="white" stroke="black"/>
<text x="79" y="540" text-anchor="left" dominant-baseline="middle" font-size="100%" rotate="0">必要な情報を揃える</text>
<line x1="60" y1="522" x2="60" y2="531" stroke="black"/>
<line x1="42" y1="522" x2="60" y2="522" stroke="black"/>
<line x1="42" y1="504" x2="42" y2="522" stroke="black"/>
<circle cx="90" cy="570" r="9" fill="white" stroke="black"/>
<text x="109" y="570" text-anchor="left" dominant-baseline="middle" font-size="100%" rotate="0">排他を取得</text>
<line x1="90" y1="552" x2="90" y2="561" stroke="black"/>
<line x1="72" y1="552" x2="90" y2="552" stroke="black"/>
<line x1="72" y1="534" x2="72" y2="552" stroke="black"/>
<circle cx="90" cy="600" r="9" fill="white" stroke="black"/>
<text x="98" y="599" text-anchor="left" dominant-baseline="middle" font-size="100%" rotate="240">↻</text>
<text x="109" y="600" text-anchor="left" dominant-baseline="middle" font-size="100%" rotate="0">DBから取得</text>
<line x1="90" y1="579" x2="90" y2="591" stroke="black"/>
<circle cx="90" cy="630" r="9" fill="white" stroke="black"/>
<text x="109" y="630" text-anchor="left" dominant-baseline="middle" font-size="100%" rotate="0">排他を解放</text>
<line x1="90" y1="609" x2="90" y2="621" stroke="black"/>
<circle cx="90" cy="660" r="9" fill="white" stroke="black"/>
<text x="109" y="660" text-anchor="left" dominant-baseline="middle" font-size="100%" rotate="0">機能Bの実行</text>
<line x1="90" y1="639" x2="90" y2="651" stroke="black"/>
<line x1="90" y1="669" x2="90" y2="678" stroke="black"/>
<line x1="81" y1="678" x2="99" y2="678" stroke="black"/>
<circle cx="120" cy="690" r="9" fill="white" stroke="black"/>
<text x="139" y="690" text-anchor="left" dominant-baseline="middle" font-size="100%" rotate="0">機能Bの前処理</text>
<line x1="120" y1="672" x2="120" y2="681" stroke="black"/>
<line x1="102" y1="672" x2="120" y2="672" stroke="black"/>
<line x1="102" y1="654" x2="102" y2="672" stroke="black"/>
<circle cx="120" cy="720" r="9" fill="white" stroke="black"/>
<text x="139" y="720" text-anchor="left" dominant-baseline="middle" font-size="100%" rotate="0">機能Bの後処理</text>
<line x1="120" y1="699" x2="120" y2="711" stroke="black"/>
<line x1="120" y1="741" x2="120" y2="750" stroke="black"/>
<polygon points="120 759 112 745 127 745" fill="white" stroke="black"/>
<line x1="111" y1="759" x2="129" y2="759" stroke="black"/>
<text x="118" y="751" text-anchor="left" dominant-baseline="middle" font-size="50%" rotate="0">2</text>
<line x1="120" y1="729" x2="120" y2="741" stroke="black"/>
<circle cx="60" cy="780" r="9" fill="white" stroke="black"/>
<text x="79" y="780" text-anchor="left" dominant-baseline="middle" font-size="100%" rotate="0">処理終了</text>
<line x1="60" y1="549" x2="60" y2="771" stroke="black"/>
<line x1="60" y1="789" x2="60" y2="798" stroke="black"/>
<line x1="51" y1="798" x2="69" y2="798" stroke="black"/>
<circle cx="90" cy="810" r="9" fill="white" stroke="black"/>
<text x="109" y="810" text-anchor="left" dominant-baseline="middle" font-size="100%" rotate="0">戻り値を返す</text>
<line x1="90" y1="819" x2="90" y2="828" stroke="black"/>
<line x1="81" y1="828" x2="99" y2="828" stroke="black"/>
<line x1="90" y1="792" x2="90" y2="801" stroke="black"/>
<line x1="72" y1="792" x2="90" y2="792" stroke="black"/>
<line x1="72" y1="774" x2="72" y2="792" stroke="black"/>
<line x1="120" y1="831" x2="120" y2="840" stroke="black"/>
<polygon points="120 849 112 835 127 835" fill="white" stroke="black"/>
<line x1="111" y1="849" x2="129" y2="849" stroke="black"/>
<line x1="120" y1="822" x2="120" y2="831" stroke="black"/>
<line x1="102" y1="822" x2="120" y2="822" stroke="black"/>
<line x1="102" y1="804" x2="102" y2="822" stroke="black"/>
<line x1="199" y1="175" x2="251" y2="175" stroke="black"/>
<path d="M 199 175 L 207 171 L 207 179" stroke="black" fill="black" />
<line x1="199" y1="185" x2="261" y2="185" stroke="red"/>
<line x1="199" y1="185" x2="271" y2="185" stroke="green"/>
<line x1="199" y1="595" x2="281" y2="595" stroke="blue"/>
<path d="M 199 595 L 207 591 L 207 599" stroke="blue" fill="blue" />
<line x1="199" y1="605" x2="291" y2="605" stroke="yellow"/>
<line x1="199" y1="605" x2="301" y2="605" stroke="purple"/>
<rect x="322" y="21" width="18" height="18" fill="white" stroke="black"/>
<text x="350" y="30" text-anchor="left" dominant-baseline="middle" font-size="100%" rotate="0">データ1</text>
<rect x="352" y="51" width="18" height="18" fill="white" stroke="black"/>
<text x="380" y="60" text-anchor="left" dominant-baseline="middle" font-size="100%" rotate="0">データ1-1</text>
<line x1="361" y1="42" x2="361" y2="51" stroke="black"/>
<line x1="343" y1="42" x2="361" y2="42" stroke="black"/>
<line x1="343" y1="24" x2="343" y2="42" stroke="black"/>
<rect x="352" y="81" width="18" height="18" fill="white" stroke="black"/>
<text x="380" y="90" text-anchor="left" dominant-baseline="middle" font-size="100%" rotate="0">データ(AAA)</text>
<line x1="361" y1="69" x2="361" y2="81" stroke="black"/>
<rect x="352" y="111" width="18" height="18" fill="white" stroke="black"/>
<text x="380" y="120" text-anchor="left" dominant-baseline="middle" font-size="100%" rotate="0">データ(種類)</text>
<line x1="361" y1="99" x2="361" y2="111" stroke="black"/>
<rect x="322" y="141" width="18" height="18" fill="white" stroke="black"/>
<text x="350" y="150" text-anchor="left" dominant-baseline="middle" font-size="100%" rotate="0">データ2</text>
<rect x="322" y="171" width="18" height="18" fill="white" stroke="black"/>
<text x="350" y="180" text-anchor="left" dominant-baseline="middle" font-size="100%" rotate="0">データ3</text>
<rect x="322" y="201" width="18" height="18" fill="white" stroke="black"/>
<text x="350" y="210" text-anchor="left" dominant-baseline="middle" font-size="100%" rotate="0">データ1</text>
<rect x="352" y="231" width="18" height="18" fill="white" stroke="black"/>
<text x="380" y="240" text-anchor="left" dominant-baseline="middle" font-size="100%" rotate="0">データ1-1</text>
<line x1="361" y1="222" x2="361" y2="231" stroke="black"/>
<line x1="343" y1="222" x2="361" y2="222" stroke="black"/>
<line x1="343" y1="204" x2="343" y2="222" stroke="black"/>
<rect x="352" y="261" width="18" height="18" fill="white" stroke="black"/>
<text x="380" y="270" text-anchor="left" dominant-baseline="middle" font-size="100%" rotate="0">データ(AAA)</text>
<line x1="361" y1="249" x2="361" y2="261" stroke="black"/>
<rect x="352" y="291" width="18" height="18" fill="white" stroke="black"/>
<text x="380" y="300" text-anchor="left" dominant-baseline="middle" font-size="100%" rotate="0">データ(種類)</text>
<line x1="361" y1="279" x2="361" y2="291" stroke="black"/>
<rect x="322" y="321" width="18" height="18" fill="white" stroke="black"/>
<text x="350" y="330" text-anchor="left" dominant-baseline="middle" font-size="100%" rotate="0">データ2</text>
<rect x="322" y="351" width="18" height="18" fill="white" stroke="black"/>
<text x="350" y="360" text-anchor="left" dominant-baseline="middle" font-size="100%" rotate="0">データ3</text>
<line x1="251" y1="25" x2="322" y2="25" stroke="black"/>
<line x1="281" y1="25" x2="322" y2="25" stroke="blue"/>
<line x1="271" y1="95" x2="352" y2="95" stroke="green"/>
<path d="M 352 95 L 344 91 L 344 99" stroke="green" fill="green" />
<line x1="301" y1="95" x2="352" y2="95" stroke="purple"/>
<path d="M 352 95 L 344 91 L 344 99" stroke="purple" fill="purple" />
<line x1="261" y1="155" x2="322" y2="155" stroke="red"/>
<path d="M 322 155 L 314 151 L 314 159" stroke="red" fill="red" />
<line x1="291" y1="155" x2="322" y2="155" stroke="yellow"/>
<path d="M 322 155 L 314 151 L 314 159" stroke="yellow" fill="yellow" />
<line x1="251" y1="205" x2="322" y2="205" stroke="black"/>
<line x1="281" y1="205" x2="322" y2="205" stroke="blue"/>
<line x1="271" y1="275" x2="352" y2="275" stroke="green"/>
<path d="M 352 275 L 344 271 L 344 279" stroke="green" fill="green" />
<line x1="301" y1="275" x2="352" y2="275" stroke="purple"/>
<path d="M 352 275 L 344 271 L 344 279" stroke="purple" fill="purple" />
<line x1="261" y1="335" x2="322" y2="335" stroke="red"/>
<path d="M 322 335 L 314 331 L 314 339" stroke="red" fill="red" />
<line x1="291" y1="335" x2="322" y2="335" stroke="yellow"/>
<path d="M 322 335 L 314 331 L 314 339" stroke="yellow" fill="yellow" />
<line x1="251" y1="175" x2="251" y2="205" stroke="black"/>
<line x1="261" y1="185" x2="261" y2="335" stroke="red"/>
<line x1="271" y1="185" x2="271" y2="275" stroke="green"/>
<line x1="281" y1="205" x2="281" y2="595" stroke="blue"/>
<line x1="291" y1="335" x2="291" y2="605" stroke="yellow"/>
<line x1="301" y1="275" x2="301" y2="605" stroke="purple"/>
</svg>