<svg xmlns="http://www.w3.org/2000/svg" width="446" height="470" style="background-color: #808d81">
<circle cx="30" cy="30" r="9" fill="white" stroke="black"/>
<text x="49" y="30" text-anchor="left" dominant-baseline="middle" font-size="100%" rotate="0">処理開始</text>
<line x1="30" y1="12" x2="30" y2="21" stroke="black"/>
<line x1="21" y1="12" x2="39" y2="12" stroke="black"/>
<circle cx="30" cy="60" r="9" fill="white" stroke="black"/>
<text x="49" y="60" text-anchor="left" dominant-baseline="middle" font-size="100%" rotate="0">処理レベル0-1</text>
<line x1="30" y1="39" x2="30" y2="51" stroke="black"/>
<circle cx="30" cy="90" r="9" fill="white" stroke="black"/>
<text x="49" y="90" text-anchor="left" dominant-baseline="middle" font-size="100%" rotate="0">処理レベル0-2</text>
<line x1="30" y1="69" x2="30" y2="81" stroke="black"/>
<line x1="30" y1="99" x2="30" y2="108" stroke="black"/>
<line x1="21" y1="108" x2="39" y2="108" stroke="black"/>
<circle cx="60" cy="120" r="9" fill="white" stroke="black"/>
<text x="79" y="120" text-anchor="left" dominant-baseline="middle" font-size="100%" rotate="0">必要な情報を揃える</text>
<line x1="60" y1="102" x2="60" y2="111" stroke="black"/>
<line x1="42" y1="102" x2="60" y2="102" stroke="black"/>
<line x1="42" y1="84" x2="42" y2="102" stroke="black"/>
<circle cx="90" cy="150" r="9" fill="white" stroke="black"/>
<text x="109" y="150" text-anchor="left" dominant-baseline="middle" font-size="100%" rotate="0">排他を取得</text>
<line x1="90" y1="132" x2="90" y2="141" stroke="black"/>
<line x1="72" y1="132" x2="90" y2="132" stroke="black"/>
<line x1="72" y1="114" x2="72" y2="132" stroke="black"/>
<circle cx="90" cy="180" r="9" fill="white" stroke="black"/>
<text x="98" y="179" text-anchor="left" dominant-baseline="middle" font-size="100%" rotate="240">↻</text>
<text x="109" y="180" text-anchor="left" dominant-baseline="middle" font-size="100%" rotate="0">DBから取得</text>
<line x1="90" y1="159" x2="90" y2="171" stroke="black"/>
<circle cx="90" cy="210" r="9" fill="white" stroke="black"/>
<text x="109" y="210" text-anchor="left" dominant-baseline="middle" font-size="100%" rotate="0">排他を解放</text>
<line x1="90" y1="189" x2="90" y2="201" stroke="black"/>
<circle cx="90" cy="240" r="9" fill="white" stroke="black"/>
<text x="109" y="240" text-anchor="left" dominant-baseline="middle" font-size="100%" rotate="0">機能Bの実行</text>
<line x1="90" y1="219" x2="90" y2="231" stroke="black"/>
<line x1="90" y1="249" x2="90" y2="258" stroke="black"/>
<line x1="81" y1="258" x2="99" y2="258" stroke="black"/>
<circle cx="120" cy="270" r="9" fill="white" stroke="black"/>
<text x="139" y="270" text-anchor="left" dominant-baseline="middle" font-size="100%" rotate="0">機能Bの前処理</text>
<line x1="120" y1="252" x2="120" y2="261" stroke="black"/>
<line x1="102" y1="252" x2="120" y2="252" stroke="black"/>
<line x1="102" y1="234" x2="102" y2="252" stroke="black"/>
<circle cx="120" cy="300" r="9" fill="white" stroke="black"/>
<text x="139" y="300" text-anchor="left" dominant-baseline="middle" font-size="100%" rotate="0">機能Bの後処理</text>
<line x1="120" y1="279" x2="120" y2="291" stroke="black"/>
<line x1="120" y1="321" x2="120" y2="330" stroke="black"/>
<polygon points="120 339 112 325 127 325" fill="white" stroke="black"/>
<line x1="111" y1="339" x2="129" y2="339" stroke="black"/>
<text x="118" y="331" text-anchor="left" dominant-baseline="middle" font-size="50%" rotate="0">2</text>
<line x1="120" y1="309" x2="120" y2="321" stroke="black"/>
<circle cx="60" cy="360" r="9" fill="white" stroke="black"/>
<text x="79" y="360" text-anchor="left" dominant-baseline="middle" font-size="100%" rotate="0">処理終了</text>
<line x1="60" y1="129" x2="60" y2="351" stroke="black"/>
<line x1="60" y1="369" x2="60" y2="378" stroke="black"/>
<line x1="51" y1="378" x2="69" y2="378" stroke="black"/>
<circle cx="90" cy="390" r="9" fill="white" stroke="black"/>
<text x="109" y="390" text-anchor="left" dominant-baseline="middle" font-size="100%" rotate="0">戻り値を返す</text>
<line x1="90" y1="399" x2="90" y2="408" stroke="black"/>
<line x1="81" y1="408" x2="99" y2="408" stroke="black"/>
<line x1="90" y1="372" x2="90" y2="381" stroke="black"/>
<line x1="72" y1="372" x2="90" y2="372" stroke="black"/>
<line x1="72" y1="354" x2="72" y2="372" stroke="black"/>
<line x1="120" y1="411" x2="120" y2="420" stroke="black"/>
<polygon points="120 429 112 415 127 415" fill="white" stroke="black"/>
<line x1="111" y1="429" x2="129" y2="429" stroke="black"/>
<line x1="120" y1="402" x2="120" y2="411" stroke="black"/>
<line x1="102" y1="402" x2="120" y2="402" stroke="black"/>
<line x1="102" y1="384" x2="102" y2="402" stroke="black"/>
<line x1="199" y1="175" x2="251" y2="175" stroke="black"/>
<path d="M 199 175 L 207 171 L 207 179" stroke="black" fill="black" />
<line x1="199" y1="185" x2="261" y2="185" stroke="red"/>
<line x1="199" y1="185" x2="271" y2="185" stroke="green"/>
<rect x="292" y="21" width="18" height="18" fill="white" stroke="black"/>
<text x="320" y="30" text-anchor="left" dominant-baseline="middle" font-size="100%" rotate="0">データ1</text>
<rect x="322" y="51" width="18" height="18" fill="white" stroke="black"/>
<text x="350" y="60" text-anchor="left" dominant-baseline="middle" font-size="100%" rotate="0">データ1-1</text>
<rect x="322" y="81" width="18" height="18" fill="white" stroke="black"/>
<text x="350" y="90" text-anchor="left" dominant-baseline="middle" font-size="100%" rotate="0">データ(AAA)</text>
<rect x="322" y="111" width="18" height="18" fill="white" stroke="black"/>
<text x="350" y="120" text-anchor="left" dominant-baseline="middle" font-size="100%" rotate="0">データ(種類)</text>
<rect x="292" y="141" width="18" height="18" fill="white" stroke="black"/>
<text x="320" y="150" text-anchor="left" dominant-baseline="middle" font-size="100%" rotate="0">データ2</text>
<rect x="292" y="171" width="18" height="18" fill="white" stroke="black"/>
<text x="320" y="180" text-anchor="left" dominant-baseline="middle" font-size="100%" rotate="0">データ3</text>
<line x1="251" y1="25" x2="292" y2="25" stroke="black"/>
<line x1="271" y1="95" x2="322" y2="95" stroke="green"/>
<path d="M 322 95 L 314 91 L 314 99" stroke="green" fill="green" />
<line x1="261" y1="155" x2="292" y2="155" stroke="red"/>
<path d="M 292 155 L 284 151 L 284 159" stroke="red" fill="red" />
<line x1="251" y1="25" x2="251" y2="175" stroke="black"/>
<line x1="261" y1="155" x2="261" y2="185" stroke="red"/>
<line x1="271" y1="95" x2="271" y2="185" stroke="green"/>
</svg>