<svg xmlns="http://www.w3.org/2000/svg" width="341" height="770" style="background-color: #808d81">
<rect x="0" y="0" width="341" height="770" fill="#808d81" stroke="#808d81"/>
<text x="19" y="30" text-anchor="start" dominant-baseline="middle" font-size="120%" rotate="0">モジュール名: 階層2のモジュール2</text>
<circle cx="30" cy="90" r="9" fill="white" stroke="black"/>
<text x="49" y="90" text-anchor="start" dominant-baseline="middle" font-size="100%" rotate="0">シンプルな処理</text>
<line x1="30" y1="72" x2="30" y2="81" stroke="black"/>
<line x1="21" y1="72" x2="39" y2="72" stroke="black"/>
<line x1="30" y1="99" x2="30" y2="108" stroke="black"/>
<line x1="21" y1="108" x2="39" y2="108" stroke="black"/>
<circle cx="60" cy="120" r="9" fill="white" stroke="black"/>
<text x="79" y="120" text-anchor="start" dominant-baseline="middle" font-size="100%" rotate="0">初期化</text>
<line x1="60" y1="102" x2="60" y2="111" stroke="black"/>
<line x1="42" y1="102" x2="60" y2="102" stroke="black"/>
<line x1="42" y1="84" x2="42" y2="102" stroke="black"/>
<circle cx="90" cy="150" r="9" fill="white" stroke="black"/>
<circle cx="90" cy="150" r="4" fill="white" stroke="black"/>
<text x="109" y="150" text-anchor="start" dominant-baseline="middle" font-size="100%" rotate="0">test1</text>
<line x1="90" y1="132" x2="90" y2="141" stroke="black"/>
<line x1="72" y1="132" x2="90" y2="132" stroke="black"/>
<line x1="72" y1="114" x2="72" y2="132" stroke="black"/>
<circle cx="90" cy="180" r="9" fill="white" stroke="black"/>
<text x="98" y="179" text-anchor="start" dominant-baseline="middle" font-size="100%" rotate="240">↻</text>
<text x="109" y="180" text-anchor="start" dominant-baseline="middle" font-size="100%" rotate="0">test2</text>
<line x1="90" y1="159" x2="90" y2="171" stroke="black"/>
<circle cx="90" cy="210" r="9" fill="white" stroke="black"/>
<polygon points="97 210 86 216 86 203" fill="white" stroke="black"/>
<text x="109" y="210" text-anchor="start" dominant-baseline="middle" font-size="100%" rotate="0">分岐1</text>
<line x1="90" y1="189" x2="90" y2="201" stroke="black"/>
<line x1="120" y1="231" x2="120" y2="249" stroke="black"/>
<line x1="120" y1="231" x2="135" y2="231" stroke="black"/>
<path d="M 135 231 L 127 227 L 127 235" stroke="black" fill="black" />
<text x="139" y="240" text-anchor="start" dominant-baseline="middle" font-size="100%" rotate="0">(true) 真の場合</text>
<line x1="120" y1="222" x2="120" y2="231" stroke="black"/>
<line x1="102" y1="222" x2="120" y2="222" stroke="black"/>
<line x1="102" y1="204" x2="102" y2="222" stroke="black"/>
<circle cx="150" cy="270" r="9" fill="white" stroke="black"/>
<text x="169" y="270" text-anchor="start" dominant-baseline="middle" font-size="100%" rotate="0">何もしない</text>
<line x1="150" y1="279" x2="150" y2="288" stroke="black"/>
<line x1="141" y1="288" x2="159" y2="288" stroke="black"/>
<line x1="150" y1="252" x2="150" y2="261" stroke="black"/>
<line x1="132" y1="252" x2="150" y2="252" stroke="black"/>
<line x1="132" y1="234" x2="132" y2="252" stroke="black"/>
<line x1="120" y1="291" x2="120" y2="309" stroke="black"/>
<line x1="120" y1="291" x2="135" y2="291" stroke="black"/>
<path d="M 135 291 L 127 287 L 127 295" stroke="black" fill="black" />
<text x="139" y="300" text-anchor="start" dominant-baseline="middle" font-size="100%" rotate="0">(false) 真でない場合</text>
<line x1="120" y1="249" x2="120" y2="291" stroke="black"/>
<line x1="120" y1="309" x2="120" y2="318" stroke="black"/>
<line x1="111" y1="318" x2="129" y2="318" stroke="black"/>
<circle cx="150" cy="330" r="9" fill="white" stroke="black"/>
<text x="169" y="330" text-anchor="start" dominant-baseline="middle" font-size="100%" rotate="0">何もしない</text>
<line x1="150" y1="339" x2="150" y2="348" stroke="black"/>
<line x1="141" y1="348" x2="159" y2="348" stroke="black"/>
<line x1="150" y1="312" x2="150" y2="321" stroke="black"/>
<line x1="132" y1="312" x2="150" y2="312" stroke="black"/>
<line x1="132" y1="294" x2="132" y2="312" stroke="black"/>
<circle cx="90" cy="360" r="9" fill="white" stroke="black"/>
<polygon points="97 360 86 366 86 353" fill="white" stroke="black"/>
<text x="109" y="360" text-anchor="start" dominant-baseline="middle" font-size="100%" rotate="0">分岐 2</text>
<line x1="90" y1="219" x2="90" y2="351" stroke="black"/>
<line x1="90" y1="369" x2="90" y2="378" stroke="black"/>
<line x1="81" y1="378" x2="99" y2="378" stroke="black"/>
<line x1="120" y1="381" x2="120" y2="399" stroke="black"/>
<line x1="120" y1="381" x2="135" y2="381" stroke="black"/>
<path d="M 135 381 L 127 377 L 127 385" stroke="black" fill="black" />
<text x="139" y="390" text-anchor="start" dominant-baseline="middle" font-size="100%" rotate="0">(枝1)</text>
<line x1="120" y1="372" x2="120" y2="381" stroke="black"/>
<line x1="102" y1="372" x2="120" y2="372" stroke="black"/>
<line x1="102" y1="354" x2="102" y2="372" stroke="black"/>
<circle cx="150" cy="420" r="9" fill="white" stroke="black"/>
<text x="169" y="420" text-anchor="start" dominant-baseline="middle" font-size="100%" rotate="0">何もしない</text>
<line x1="150" y1="429" x2="150" y2="438" stroke="black"/>
<line x1="141" y1="438" x2="159" y2="438" stroke="black"/>
<line x1="150" y1="402" x2="150" y2="411" stroke="black"/>
<line x1="132" y1="402" x2="150" y2="402" stroke="black"/>
<line x1="132" y1="384" x2="132" y2="402" stroke="black"/>
<line x1="120" y1="441" x2="120" y2="459" stroke="black"/>
<line x1="120" y1="441" x2="135" y2="441" stroke="black"/>
<path d="M 135 441 L 127 437 L 127 445" stroke="black" fill="black" />
<text x="139" y="450" text-anchor="start" dominant-baseline="middle" font-size="100%" rotate="0">(枝2)</text>
<line x1="120" y1="399" x2="120" y2="441" stroke="black"/>
<circle cx="150" cy="480" r="9" fill="white" stroke="black"/>
<text x="169" y="480" text-anchor="start" dominant-baseline="middle" font-size="100%" rotate="0">何もしない</text>
<line x1="150" y1="489" x2="150" y2="498" stroke="black"/>
<line x1="141" y1="498" x2="159" y2="498" stroke="black"/>
<line x1="150" y1="462" x2="150" y2="471" stroke="black"/>
<line x1="132" y1="462" x2="150" y2="462" stroke="black"/>
<line x1="132" y1="444" x2="132" y2="462" stroke="black"/>
<line x1="120" y1="501" x2="120" y2="519" stroke="black"/>
<line x1="120" y1="501" x2="135" y2="501" stroke="black"/>
<path d="M 135 501 L 127 497 L 127 505" stroke="black" fill="black" />
<text x="139" y="510" text-anchor="start" dominant-baseline="middle" font-size="100%" rotate="0">(枝3)</text>
<line x1="120" y1="459" x2="120" y2="501" stroke="black"/>
<circle cx="150" cy="540" r="9" fill="white" stroke="black"/>
<text x="169" y="540" text-anchor="start" dominant-baseline="middle" font-size="100%" rotate="0">何もしない</text>
<line x1="150" y1="549" x2="150" y2="558" stroke="black"/>
<line x1="141" y1="558" x2="159" y2="558" stroke="black"/>
<line x1="150" y1="522" x2="150" y2="531" stroke="black"/>
<line x1="132" y1="522" x2="150" y2="522" stroke="black"/>
<line x1="132" y1="504" x2="132" y2="522" stroke="black"/>
<line x1="120" y1="561" x2="120" y2="579" stroke="black"/>
<line x1="120" y1="561" x2="135" y2="561" stroke="black"/>
<path d="M 135 561 L 127 557 L 127 565" stroke="black" fill="black" />
<text x="139" y="570" text-anchor="start" dominant-baseline="middle" font-size="100%" rotate="0">(枝4)</text>
<line x1="120" y1="519" x2="120" y2="561" stroke="black"/>
<line x1="120" y1="579" x2="120" y2="588" stroke="black"/>
<line x1="111" y1="588" x2="129" y2="588" stroke="black"/>
<line x1="150" y1="591" x2="150" y2="600" stroke="black"/>
<polygon points="150 609 142 595 157 595" fill="white" stroke="black"/>
<line x1="141" y1="609" x2="159" y2="609" stroke="black"/>
<line x1="150" y1="582" x2="150" y2="591" stroke="black"/>
<line x1="132" y1="582" x2="150" y2="582" stroke="black"/>
<line x1="132" y1="564" x2="132" y2="582" stroke="black"/>
<circle cx="60" cy="630" r="9" fill="white" stroke="black"/>
<text x="79" y="630" text-anchor="start" dominant-baseline="middle" font-size="100%" rotate="0">メイン処理</text>
<line x1="60" y1="129" x2="60" y2="621" stroke="black"/>
<circle cx="90" cy="660" r="9" fill="white" stroke="black"/>
<text x="109" y="660" text-anchor="start" dominant-baseline="middle" font-size="100%" rotate="0">何もしない</text>
<line x1="90" y1="669" x2="90" y2="678" stroke="black"/>
<line x1="81" y1="678" x2="99" y2="678" stroke="black"/>
<line x1="90" y1="642" x2="90" y2="651" stroke="black"/>
<line x1="72" y1="642" x2="90" y2="642" stroke="black"/>
<line x1="72" y1="624" x2="72" y2="642" stroke="black"/>
<circle cx="60" cy="690" r="9" fill="white" stroke="black"/>
<text x="79" y="690" text-anchor="start" dominant-baseline="middle" font-size="100%" rotate="0">後処理</text>
<line x1="60" y1="639" x2="60" y2="681" stroke="black"/>
<line x1="60" y1="699" x2="60" y2="708" stroke="black"/>
<line x1="51" y1="708" x2="69" y2="708" stroke="black"/>
<circle cx="90" cy="720" r="9" fill="white" stroke="black"/>
<text x="109" y="720" text-anchor="start" dominant-baseline="middle" font-size="100%" rotate="0">何もしない</text>
<line x1="90" y1="729" x2="90" y2="738" stroke="black"/>
<line x1="81" y1="738" x2="99" y2="738" stroke="black"/>
<line x1="90" y1="702" x2="90" y2="711" stroke="black"/>
<line x1="72" y1="702" x2="90" y2="702" stroke="black"/>
<line x1="72" y1="684" x2="72" y2="702" stroke="black"/>
</svg>