<svg xmlns="http://www.w3.org/2000/svg" width="503" height="350" style="background-color: #808d81">
<rect x="0" y="0" width="503" height="350" fill="#808d81" stroke="#808d81"/>
<text x="19" y="30" text-anchor="start" dominant-baseline="middle" font-family="Consolas, Meiryo UI, Courier New, monospace" font-size="120%" rotate="0">モジュール名: 2バイト文字のタイトル</text>
<circle cx="30" cy="90" r="9" fill="white" stroke="black"/>
<text x="49" y="90" text-anchor="start" dominant-baseline="middle" font-family="Consolas, Meiryo UI, Courier New, monospace" font-size="100%" rotate="0">begin process</text>
<line x1="30" y1="72" x2="30" y2="81" stroke="black"/>
<line x1="21" y1="72" x2="39" y2="72" stroke="black"/>
<line x1="30" y1="99" x2="30" y2="108" stroke="black"/>
<line x1="21" y1="108" x2="39" y2="108" stroke="black"/>
<circle cx="60" cy="120" r="9" fill="white" stroke="black"/>
<text x="79" y="120" text-anchor="start" dominant-baseline="middle" font-family="Consolas, Meiryo UI, Courier New, monospace" font-size="100%" rotate="0">initialize</text>
<line x1="60" y1="102" x2="60" y2="111" stroke="black"/>
<line x1="42" y1="102" x2="60" y2="102" stroke="black"/>
<line x1="42" y1="84" x2="42" y2="102" stroke="black"/>
<circle cx="90" cy="150" r="9" fill="white" stroke="black"/>
<text x="109" y="150" text-anchor="start" dominant-baseline="middle" font-family="Consolas, Meiryo UI, Courier New, monospace" font-size="100%" rotate="0">pre data</text>
<line x1="90" y1="132" x2="90" y2="141" stroke="black"/>
<line x1="72" y1="132" x2="90" y2="132" stroke="black"/>
<line x1="72" y1="114" x2="72" y2="132" stroke="black"/>
<circle cx="90" cy="180" r="9" fill="white" stroke="black"/>
<text x="109" y="180" text-anchor="start" dominant-baseline="middle" font-family="Consolas, Meiryo UI, Courier New, monospace" font-size="100%" rotate="0">get data</text>
<line x1="90" y1="159" x2="90" y2="171" stroke="black"/>
<line x1="90" y1="189" x2="90" y2="198" stroke="black"/>
<line x1="81" y1="198" x2="99" y2="198" stroke="black"/>
<circle cx="60" cy="210" r="9" fill="white" stroke="black"/>
<text x="79" y="210" text-anchor="start" dominant-baseline="middle" font-family="Consolas, Meiryo UI, Courier New, monospace" font-size="100%" rotate="0">any</text>
<line x1="60" y1="129" x2="60" y2="201" stroke="black"/>
<circle cx="90" cy="240" r="9" fill="white" stroke="black"/>
<text x="109" y="240" text-anchor="start" dominant-baseline="middle" font-family="Consolas, Meiryo UI, Courier New, monospace" font-size="100%" rotate="0">update</text>
<line x1="90" y1="249" x2="90" y2="258" stroke="black"/>
<line x1="81" y1="258" x2="99" y2="258" stroke="black"/>
<line x1="90" y1="222" x2="90" y2="231" stroke="black"/>
<line x1="72" y1="222" x2="90" y2="222" stroke="black"/>
<line x1="72" y1="204" x2="72" y2="222" stroke="black"/>
<circle cx="60" cy="270" r="9" fill="white" stroke="black"/>
<text x="79" y="270" text-anchor="start" dominant-baseline="middle" font-family="Consolas, Meiryo UI, Courier New, monospace" font-size="100%" rotate="0">finalize</text>
<line x1="60" y1="219" x2="60" y2="261" stroke="black"/>
<line x1="60" y1="279" x2="60" y2="288" stroke="black"/>
<line x1="51" y1="288" x2="69" y2="288" stroke="black"/>
<circle cx="90" cy="300" r="9" fill="white" stroke="black"/>
<text x="109" y="300" text-anchor="start" dominant-baseline="middle" font-family="Consolas, Meiryo UI, Courier New, monospace" font-size="100%" rotate="0">result</text>
<line x1="90" y1="309" x2="90" y2="318" stroke="black"/>
<line x1="81" y1="318" x2="99" y2="318" stroke="black"/>
<line x1="90" y1="282" x2="90" y2="291" stroke="black"/>
<line x1="72" y1="282" x2="90" y2="282" stroke="black"/>
<line x1="72" y1="264" x2="72" y2="282" stroke="black"/>
<line x1="184" y1="155" x2="214" y2="155" stroke="black"/>
<line x1="184" y1="185" x2="224" y2="185" stroke="red"/>
<line x1="169" y1="235" x2="234" y2="235" stroke="green"/>
<path d="M 169 235 L 177 231 L 177 239" stroke="green" fill="green" />
<line x1="169" y1="235" x2="244" y2="235" stroke="blue"/>
<path d="M 169 235 L 177 231 L 177 239" stroke="blue" fill="blue" />
<line x1="169" y1="245" x2="254" y2="245" stroke="yellow"/>
<line x1="169" y1="295" x2="264" y2="295" stroke="purple"/>
<path d="M 169 295 L 177 291 L 177 299" stroke="purple" fill="purple" />
<line x1="169" y1="305" x2="274" y2="305" stroke="orange"/>
<rect x="295" y="81" width="18" height="18" fill="white" stroke="black"/>
<text x="323" y="90" text-anchor="start" dominant-baseline="middle" font-family="Consolas, Meiryo UI, Courier New, monospace" font-size="100%" rotate="0">データ1</text>
<rect x="295" y="111" width="18" height="18" fill="white" stroke="black"/>
<text x="323" y="120" text-anchor="start" dominant-baseline="middle" font-family="Consolas, Meiryo UI, Courier New, monospace" font-size="100%" rotate="0">データ:補足</text>
<rect x="295" y="141" width="18" height="18" fill="white" stroke="black"/>
<text x="323" y="150" text-anchor="start" dominant-baseline="middle" font-family="Consolas, Meiryo UI, Courier New, monospace" font-size="100%" rotate="0">データ*データ+データ1</text>
<rect x="295" y="171" width="18" height="18" fill="white" stroke="black"/>
<text x="323" y="180" text-anchor="start" dominant-baseline="middle" font-family="Consolas, Meiryo UI, Courier New, monospace" font-size="100%" rotate="0">データ^でた~</text>
<line x1="214" y1="85" x2="295" y2="85" stroke="black"/>
<path d="M 295 85 L 287 81 L 287 89" stroke="black" fill="black" />
<line x1="234" y1="95" x2="295" y2="95" stroke="green"/>
<line x1="224" y1="115" x2="295" y2="115" stroke="red"/>
<path d="M 295 115 L 287 111 L 287 119" stroke="red" fill="red" />
<line x1="244" y1="125" x2="295" y2="125" stroke="blue"/>
<line x1="254" y1="145" x2="295" y2="145" stroke="yellow"/>
<path d="M 295 145 L 287 141 L 287 149" stroke="yellow" fill="yellow" />
<line x1="264" y1="155" x2="295" y2="155" stroke="purple"/>
<line x1="274" y1="175" x2="295" y2="175" stroke="orange"/>
<path d="M 295 175 L 287 171 L 287 179" stroke="orange" fill="orange" />
<line x1="214" y1="85" x2="214" y2="155" stroke="black"/>
<line x1="224" y1="115" x2="224" y2="185" stroke="red"/>
<line x1="234" y1="95" x2="234" y2="235" stroke="green"/>
<line x1="244" y1="125" x2="244" y2="235" stroke="blue"/>
<line x1="254" y1="145" x2="254" y2="245" stroke="yellow"/>
<line x1="264" y1="155" x2="264" y2="295" stroke="purple"/>
<line x1="274" y1="175" x2="274" y2="305" stroke="orange"/>
</svg>