<svg xmlns="http://www.w3.org/2000/svg" width="478" height="530" style="background-color: #808d81">
<rect x="0" y="0" width="478" height="530" fill="#808d81" stroke="#808d81"/>
<text x="19" y="30" text-anchor="start" dominant-baseline="middle" font-family="Consolas, Courier New, monospace" font-size="18px" rotate="0">モジュール名: 階層1のモジュール1</text>
<circle cx="30" cy="90" r="9" fill="white" stroke="black"/>
<text x="49" y="90" text-anchor="start" dominant-baseline="middle" font-family="Consolas, Courier New, monospace" font-size="12px" rotate="0">処理開始</text>
<line x1="30" y1="72" x2="30" y2="81" stroke="black"/>
<line x1="21" y1="72" x2="39" y2="72" stroke="black"/>
<circle cx="30" cy="120" r="9" fill="white" stroke="black"/>
<text x="49" y="120" text-anchor="start" dominant-baseline="middle" font-family="Consolas, Courier New, monospace" font-size="12px" rotate="0">処理レベル0-1</text>
<line x1="30" y1="99" x2="30" y2="111" stroke="black"/>
<circle cx="30" cy="150" r="9" fill="white" stroke="black"/>
<text x="49" y="150" text-anchor="start" dominant-baseline="middle" font-family="Consolas, Courier New, monospace" font-size="12px" rotate="0">処理レベル0-2</text>
<line x1="30" y1="129" x2="30" y2="141" stroke="black"/>
<line x1="30" y1="159" x2="30" y2="168" stroke="black"/>
<line x1="21" y1="168" x2="39" y2="168" stroke="black"/>
<circle cx="60" cy="180" r="9" fill="white" stroke="black"/>
<text x="79" y="180" text-anchor="start" dominant-baseline="middle" font-family="Consolas, Courier New, monospace" font-size="12px" rotate="0">必要な情報を揃える</text>
<line x1="60" y1="162" x2="60" y2="171" stroke="black"/>
<line x1="42" y1="162" x2="60" y2="162" stroke="black"/>
<line x1="42" y1="144" x2="42" y2="162" stroke="black"/>
<circle cx="90" cy="210" r="9" fill="white" stroke="black"/>
<text x="109" y="210" text-anchor="start" dominant-baseline="middle" font-family="Consolas, Courier New, monospace" font-size="12px" rotate="0">排他を取得</text>
<line x1="90" y1="192" x2="90" y2="201" stroke="black"/>
<line x1="72" y1="192" x2="90" y2="192" stroke="black"/>
<line x1="72" y1="174" x2="72" y2="192" stroke="black"/>
<circle cx="90" cy="240" r="9" fill="white" stroke="black"/>
<path d="M 90 235 A 5 5, 0 0 1 90 245" stroke="black" fill="transparent"/>
<path d="M 90 245 L 92 241 L 94 245.5 Z" stroke="black" fill="black"/>
<text x="109" y="240" text-anchor="start" dominant-baseline="middle" font-family="Consolas, Courier New, monospace" font-size="12px" rotate="0">DBから取得</text>
<line x1="90" y1="219" x2="90" y2="231" stroke="black"/>
<circle cx="90" cy="270" r="9" fill="white" stroke="black"/>
<text x="109" y="270" text-anchor="start" dominant-baseline="middle" font-family="Consolas, Courier New, monospace" font-size="12px" rotate="0">排他を解放</text>
<line x1="90" y1="249" x2="90" y2="261" stroke="black"/>
<circle cx="90" cy="300" r="9" fill="white" stroke="black"/>
<text x="109" y="300" text-anchor="start" dominant-baseline="middle" font-family="Consolas, Courier New, monospace" font-size="12px" rotate="0">機能Bの実行</text>
<line x1="90" y1="279" x2="90" y2="291" stroke="black"/>
<line x1="90" y1="309" x2="90" y2="318" stroke="black"/>
<line x1="81" y1="318" x2="99" y2="318" stroke="black"/>
<circle cx="120" cy="330" r="9" fill="white" stroke="black"/>
<text x="139" y="330" text-anchor="start" dominant-baseline="middle" font-family="Consolas, Courier New, monospace" font-size="12px" rotate="0">機能Bの前処理</text>
<line x1="120" y1="312" x2="120" y2="321" stroke="black"/>
<line x1="102" y1="312" x2="120" y2="312" stroke="black"/>
<line x1="102" y1="294" x2="102" y2="312" stroke="black"/>
<circle cx="120" cy="360" r="9" fill="white" stroke="black"/>
<text x="139" y="360" text-anchor="start" dominant-baseline="middle" font-family="Consolas, Courier New, monospace" font-size="12px" rotate="0">機能Bの後処理</text>
<line x1="120" y1="339" x2="120" y2="351" stroke="black"/>
<line x1="120" y1="381" x2="120" y2="390" stroke="black"/>
<polygon points="120 399 112 385 127 385" fill="white" stroke="black"/>
<line x1="111" y1="399" x2="129" y2="399" stroke="black"/>
<text x="139" y="390" text-anchor="start" dominant-baseline="middle" font-family="Consolas, Courier New, monospace" font-size="12px" rotate="0">2</text>
<line x1="120" y1="369" x2="120" y2="381" stroke="black"/>
<circle cx="60" cy="420" r="9" fill="white" stroke="black"/>
<text x="79" y="420" text-anchor="start" dominant-baseline="middle" font-family="Consolas, Courier New, monospace" font-size="12px" rotate="0">処理終了</text>
<line x1="60" y1="189" x2="60" y2="411" stroke="black"/>
<line x1="60" y1="429" x2="60" y2="438" stroke="black"/>
<line x1="51" y1="438" x2="69" y2="438" stroke="black"/>
<circle cx="90" cy="450" r="9" fill="white" stroke="black"/>
<text x="109" y="450" text-anchor="start" dominant-baseline="middle" font-family="Consolas, Courier New, monospace" font-size="12px" rotate="0">戻り値を返す</text>
<line x1="90" y1="459" x2="90" y2="468" stroke="black"/>
<line x1="81" y1="468" x2="99" y2="468" stroke="black"/>
<line x1="90" y1="432" x2="90" y2="441" stroke="black"/>
<line x1="72" y1="432" x2="90" y2="432" stroke="black"/>
<line x1="72" y1="414" x2="72" y2="432" stroke="black"/>
<line x1="120" y1="471" x2="120" y2="480" stroke="black"/>
<polygon points="120 489 112 475 127 475" fill="white" stroke="black"/>
<line x1="111" y1="489" x2="129" y2="489" stroke="black"/>
<text x="139" y="480" text-anchor="start" dominant-baseline="middle" font-family="Consolas, Courier New, monospace" font-size="12px" rotate="0">TRUE(成功値) 固定</text>
<line x1="120" y1="462" x2="120" y2="471" stroke="black"/>
<line x1="102" y1="462" x2="120" y2="462" stroke="black"/>
<line x1="102" y1="444" x2="102" y2="462" stroke="black"/>
<line x1="184" y1="235" x2="292" y2="235" stroke="black"/>
<path d="M 184 235 L 192 231 L 192 239" stroke="black" fill="black" />
<line x1="184" y1="245" x2="302" y2="245" stroke="red"/>
<line x1="184" y1="245" x2="312" y2="245" stroke="green"/>
<rect x="333" y="81" width="18" height="18" fill="white" stroke="black"/>
<text x="361" y="90" text-anchor="start" dominant-baseline="middle" font-family="Consolas, Courier New, monospace" font-size="12px" rotate="0">データ1</text>
<rect x="363" y="111" width="18" height="18" fill="white" stroke="black"/>
<text x="391" y="120" text-anchor="start" dominant-baseline="middle" font-family="Consolas, Courier New, monospace" font-size="12px" rotate="0">データ1-1</text>
<line x1="372" y1="102" x2="372" y2="111" stroke="black"/>
<line x1="354" y1="102" x2="372" y2="102" stroke="black"/>
<line x1="354" y1="84" x2="354" y2="102" stroke="black"/>
<rect x="363" y="141" width="18" height="18" fill="white" stroke="black"/>
<text x="391" y="150" text-anchor="start" dominant-baseline="middle" font-family="Consolas, Courier New, monospace" font-size="12px" rotate="0">データ(AAA)</text>
<line x1="372" y1="129" x2="372" y2="141" stroke="black"/>
<rect x="363" y="171" width="18" height="18" fill="white" stroke="black"/>
<text x="391" y="180" text-anchor="start" dominant-baseline="middle" font-family="Consolas, Courier New, monospace" font-size="12px" rotate="0">データ(種類)</text>
<line x1="372" y1="159" x2="372" y2="171" stroke="black"/>
<rect x="333" y="201" width="18" height="18" fill="white" stroke="black"/>
<text x="361" y="210" text-anchor="start" dominant-baseline="middle" font-family="Consolas, Courier New, monospace" font-size="12px" rotate="0">データ2</text>
<rect x="333" y="231" width="18" height="18" fill="white" stroke="black"/>
<text x="361" y="240" text-anchor="start" dominant-baseline="middle" font-family="Consolas, Courier New, monospace" font-size="12px" rotate="0">データ3</text>
<line x1="292" y1="95" x2="333" y2="95" stroke="black"/>
<line x1="312" y1="145" x2="363" y2="145" stroke="green"/>
<path d="M 363 145 L 355 141 L 355 149" stroke="green" fill="green" />
<line x1="302" y1="205" x2="333" y2="205" stroke="red"/>
<path d="M 333 205 L 325 201 L 325 209" stroke="red" fill="red" />
<line x1="292" y1="95" x2="292" y2="235" stroke="black"/>
<line x1="302" y1="205" x2="302" y2="245" stroke="red"/>
<line x1="312" y1="145" x2="312" y2="245" stroke="green"/>
</svg>