<svg xmlns="http://www.w3.org/2000/svg" width="728" height="1070" style="background-color: #808d81">
<circle cx="30" cy="30" r="9" fill="white" stroke="black"/>
<text x="49" y="30" text-anchor="left" dominant-baseline="middle" font-size="100%" rotate="0">処理開始</text>
<line x1="30" y1="12" x2="30" y2="21" stroke="black"/>
<line x1="21" y1="12" x2="39" y2="12" stroke="black"/>
<line x1="30" y1="39" x2="30" y2="48" stroke="black"/>
<line x1="21" y1="48" x2="39" y2="48" stroke="black"/>
<circle cx="60" cy="60" r="9" fill="white" stroke="black"/>
<text x="79" y="60" text-anchor="left" dominant-baseline="middle" font-size="100%" rotate="0">必要な情報を揃える</text>
<line x1="60" y1="42" x2="60" y2="51" stroke="black"/>
<line x1="42" y1="42" x2="60" y2="42" stroke="black"/>
<line x1="42" y1="24" x2="42" y2="42" stroke="black"/>
<circle cx="90" cy="90" r="9" fill="white" stroke="black"/>
<text x="109" y="90" text-anchor="left" dominant-baseline="middle" font-size="100%" rotate="0">排他を取得</text>
<line x1="90" y1="72" x2="90" y2="81" stroke="black"/>
<line x1="72" y1="72" x2="90" y2="72" stroke="black"/>
<line x1="72" y1="54" x2="72" y2="72" stroke="black"/>
<circle cx="90" cy="120" r="9" fill="white" stroke="black"/>
<text x="98" y="119" text-anchor="left" dominant-baseline="middle" font-size="100%" rotate="240">↻</text>
<text x="109" y="120" text-anchor="left" dominant-baseline="middle" font-size="100%" rotate="0">DBから取得</text>
<line x1="90" y1="99" x2="90" y2="111" stroke="black"/>
<circle cx="90" cy="150" r="9" fill="white" stroke="black"/>
<text x="109" y="150" text-anchor="left" dominant-baseline="middle" font-size="100%" rotate="0">排他を解放</text>
<line x1="90" y1="129" x2="90" y2="141" stroke="black"/>
<line x1="90" y1="159" x2="90" y2="168" stroke="black"/>
<line x1="81" y1="168" x2="99" y2="168" stroke="black"/>
<circle cx="60" cy="180" r="9" fill="white" stroke="black"/>
<text x="79" y="180" text-anchor="left" dominant-baseline="middle" font-size="100%" rotate="0">データ更新</text>
<line x1="60" y1="69" x2="60" y2="171" stroke="black"/>
<circle cx="90" cy="210" r="9" fill="white" stroke="black"/>
<text x="109" y="210" text-anchor="left" dominant-baseline="middle" font-size="100%" rotate="0">更新が必要か判定する</text>
<line x1="90" y1="219" x2="90" y2="228" stroke="black"/>
<line x1="81" y1="228" x2="99" y2="228" stroke="black"/>
<line x1="90" y1="192" x2="90" y2="201" stroke="black"/>
<line x1="72" y1="192" x2="90" y2="192" stroke="black"/>
<line x1="72" y1="174" x2="72" y2="192" stroke="black"/>
<circle cx="60" cy="240" r="9" fill="white" stroke="black"/>
<text x="79" y="240" text-anchor="left" dominant-baseline="middle" font-size="100%" rotate="0">更新に伴った処理</text>
<line x1="60" y1="189" x2="60" y2="231" stroke="black"/>
<circle cx="90" cy="270" r="9" fill="white" stroke="black"/>
<text x="109" y="270" text-anchor="left" dominant-baseline="middle" font-size="100%" rotate="0">機能Aの実行</text>
<line x1="90" y1="252" x2="90" y2="261" stroke="black"/>
<line x1="72" y1="252" x2="90" y2="252" stroke="black"/>
<line x1="72" y1="234" x2="72" y2="252" stroke="black"/>
<circle cx="120" cy="300" r="9" fill="white" stroke="black"/>
<text x="139" y="300" text-anchor="left" dominant-baseline="middle" font-size="100%" rotate="0">機能Aの前処理</text>
<line x1="120" y1="282" x2="120" y2="291" stroke="black"/>
<line x1="102" y1="282" x2="120" y2="282" stroke="black"/>
<line x1="102" y1="264" x2="102" y2="282" stroke="black"/>
<circle cx="120" cy="330" r="9" fill="white" stroke="black"/>
<text x="139" y="330" text-anchor="left" dominant-baseline="middle" font-size="100%" rotate="0">機能Aの本処理</text>
<line x1="120" y1="309" x2="120" y2="321" stroke="black"/>
<circle cx="150" cy="360" r="9" fill="white" stroke="black"/>
<polygon points="157 360 146 366 146 353" fill="white" stroke="black"/>
<text x="169" y="360" text-anchor="left" dominant-baseline="middle" font-size="100%" rotate="0">条件を満足する</text>
<line x1="150" y1="342" x2="150" y2="351" stroke="black"/>
<line x1="132" y1="342" x2="150" y2="342" stroke="black"/>
<line x1="132" y1="324" x2="132" y2="342" stroke="black"/>
<line x1="180" y1="381" x2="180" y2="399" stroke="black"/>
<line x1="180" y1="381" x2="195" y2="381" stroke="black"/>
<path d="M 195 381 L 187 377 L 187 385" stroke="black" fill="black" />
<text x="199" y="390" text-anchor="left" dominant-baseline="middle" font-size="100%" rotate="0">(true) 条件を満足した</text>
<line x1="180" y1="372" x2="180" y2="381" stroke="black"/>
<line x1="162" y1="372" x2="180" y2="372" stroke="black"/>
<line x1="162" y1="354" x2="162" y2="372" stroke="black"/>
<circle cx="210" cy="420" r="9" fill="white" stroke="black"/>
<circle cx="210" cy="420" r="4" fill="white" stroke="black"/>
<text x="229" y="420" text-anchor="left" dominant-baseline="middle" font-size="100%" rotate="0">関数を呼び出す</text>
<line x1="210" y1="402" x2="210" y2="411" stroke="black"/>
<line x1="192" y1="402" x2="210" y2="402" stroke="black"/>
<line x1="192" y1="384" x2="192" y2="402" stroke="black"/>
<circle cx="210" cy="450" r="9" fill="white" stroke="black"/>
<polygon points="217 450 206 456 206 443" fill="white" stroke="black"/>
<text x="229" y="450" text-anchor="left" dominant-baseline="middle" font-size="100%" rotate="0">呼び出し結果に応じて分岐する</text>
<line x1="210" y1="429" x2="210" y2="441" stroke="black"/>
<line x1="210" y1="459" x2="210" y2="468" stroke="black"/>
<line x1="201" y1="468" x2="219" y2="468" stroke="black"/>
<line x1="240" y1="471" x2="240" y2="489" stroke="black"/>
<line x1="240" y1="471" x2="255" y2="471" stroke="black"/>
<path d="M 255 471 L 247 467 L 247 475" stroke="black" fill="black" />
<text x="259" y="480" text-anchor="left" dominant-baseline="middle" font-size="100%" rotate="0">(成功したので出力有り)</text>
<line x1="240" y1="462" x2="240" y2="471" stroke="black"/>
<line x1="222" y1="462" x2="240" y2="462" stroke="black"/>
<line x1="222" y1="444" x2="222" y2="462" stroke="black"/>
<circle cx="270" cy="510" r="9" fill="white" stroke="black"/>
<text x="289" y="510" text-anchor="left" dominant-baseline="middle" font-size="100%" rotate="0">OK1</text>
<line x1="270" y1="519" x2="270" y2="528" stroke="black"/>
<line x1="261" y1="528" x2="279" y2="528" stroke="black"/>
<line x1="270" y1="492" x2="270" y2="501" stroke="black"/>
<line x1="252" y1="492" x2="270" y2="492" stroke="black"/>
<line x1="252" y1="474" x2="252" y2="492" stroke="black"/>
<line x1="240" y1="531" x2="240" y2="549" stroke="black"/>
<line x1="240" y1="531" x2="255" y2="531" stroke="black"/>
<path d="M 255 531 L 247 527 L 247 535" stroke="black" fill="black" />
<text x="259" y="540" text-anchor="left" dominant-baseline="middle" font-size="100%" rotate="0">(成功したが出力無し)</text>
<line x1="240" y1="489" x2="240" y2="531" stroke="black"/>
<circle cx="270" cy="570" r="9" fill="white" stroke="black"/>
<text x="289" y="570" text-anchor="left" dominant-baseline="middle" font-size="100%" rotate="0">OK2</text>
<line x1="270" y1="579" x2="270" y2="588" stroke="black"/>
<line x1="261" y1="588" x2="279" y2="588" stroke="black"/>
<line x1="270" y1="552" x2="270" y2="561" stroke="black"/>
<line x1="252" y1="552" x2="270" y2="552" stroke="black"/>
<line x1="252" y1="534" x2="252" y2="552" stroke="black"/>
<line x1="240" y1="591" x2="240" y2="609" stroke="black"/>
<line x1="240" y1="591" x2="255" y2="591" stroke="black"/>
<path d="M 255 591 L 247 587 L 247 595" stroke="black" fill="black" />
<text x="259" y="600" text-anchor="left" dominant-baseline="middle" font-size="100%" rotate="0">(失敗したが出力有り)</text>
<line x1="240" y1="549" x2="240" y2="591" stroke="black"/>
<circle cx="270" cy="630" r="9" fill="white" stroke="black"/>
<text x="289" y="630" text-anchor="left" dominant-baseline="middle" font-size="100%" rotate="0">NG1</text>
<line x1="270" y1="639" x2="270" y2="648" stroke="black"/>
<line x1="261" y1="648" x2="279" y2="648" stroke="black"/>
<line x1="270" y1="612" x2="270" y2="621" stroke="black"/>
<line x1="252" y1="612" x2="270" y2="612" stroke="black"/>
<line x1="252" y1="594" x2="252" y2="612" stroke="black"/>
<line x1="240" y1="651" x2="240" y2="669" stroke="black"/>
<line x1="240" y1="651" x2="255" y2="651" stroke="black"/>
<path d="M 255 651 L 247 647 L 247 655" stroke="black" fill="black" />
<text x="259" y="660" text-anchor="left" dominant-baseline="middle" font-size="100%" rotate="0">(失敗したので出力無し)</text>
<line x1="240" y1="609" x2="240" y2="651" stroke="black"/>
<line x1="240" y1="669" x2="240" y2="678" stroke="black"/>
<line x1="231" y1="678" x2="249" y2="678" stroke="black"/>
<circle cx="270" cy="690" r="9" fill="white" stroke="black"/>
<text x="289" y="690" text-anchor="left" dominant-baseline="middle" font-size="100%" rotate="0">NG2</text>
<line x1="270" y1="699" x2="270" y2="708" stroke="black"/>
<line x1="261" y1="708" x2="279" y2="708" stroke="black"/>
<line x1="270" y1="672" x2="270" y2="681" stroke="black"/>
<line x1="252" y1="672" x2="270" y2="672" stroke="black"/>
<line x1="252" y1="654" x2="252" y2="672" stroke="black"/>
<line x1="180" y1="711" x2="180" y2="729" stroke="black"/>
<line x1="180" y1="711" x2="195" y2="711" stroke="black"/>
<path d="M 195 711 L 187 707 L 187 715" stroke="black" fill="black" />
<text x="199" y="720" text-anchor="left" dominant-baseline="middle" font-size="100%" rotate="0">(false) 条件を満足しなかった</text>
<line x1="180" y1="399" x2="180" y2="711" stroke="black"/>
<line x1="180" y1="729" x2="180" y2="738" stroke="black"/>
<line x1="171" y1="738" x2="189" y2="738" stroke="black"/>
<circle cx="210" cy="750" r="9" fill="white" stroke="black"/>
<text x="229" y="750" text-anchor="left" dominant-baseline="middle" font-size="100%" rotate="0">何もしない</text>
<line x1="210" y1="759" x2="210" y2="768" stroke="black"/>
<line x1="201" y1="768" x2="219" y2="768" stroke="black"/>
<line x1="210" y1="732" x2="210" y2="741" stroke="black"/>
<line x1="192" y1="732" x2="210" y2="732" stroke="black"/>
<line x1="192" y1="714" x2="192" y2="732" stroke="black"/>
<line x1="150" y1="771" x2="150" y2="780" stroke="black"/>
<polygon points="150 789 142 775 157 775" fill="white" stroke="black"/>
<line x1="141" y1="789" x2="159" y2="789" stroke="black"/>
<text x="148" y="781" text-anchor="left" dominant-baseline="middle" font-size="50%" rotate="0">9</text>
<line x1="150" y1="369" x2="150" y2="771" stroke="black"/>
<circle cx="120" cy="810" r="9" fill="white" stroke="black"/>
<text x="139" y="810" text-anchor="left" dominant-baseline="middle" font-size="100%" rotate="0">機能Aの後処理</text>
<line x1="120" y1="339" x2="120" y2="801" stroke="black"/>
<line x1="120" y1="819" x2="120" y2="828" stroke="black"/>
<line x1="111" y1="828" x2="129" y2="828" stroke="black"/>
<circle cx="90" cy="840" r="9" fill="white" stroke="black"/>
<text x="109" y="840" text-anchor="left" dominant-baseline="middle" font-size="100%" rotate="0">機能Bの実行</text>
<line x1="90" y1="279" x2="90" y2="831" stroke="black"/>
<line x1="90" y1="849" x2="90" y2="858" stroke="black"/>
<line x1="81" y1="858" x2="99" y2="858" stroke="black"/>
<circle cx="120" cy="870" r="9" fill="white" stroke="black"/>
<text x="139" y="870" text-anchor="left" dominant-baseline="middle" font-size="100%" rotate="0">機能Bの前処理</text>
<line x1="120" y1="852" x2="120" y2="861" stroke="black"/>
<line x1="102" y1="852" x2="120" y2="852" stroke="black"/>
<line x1="102" y1="834" x2="102" y2="852" stroke="black"/>
<circle cx="120" cy="900" r="9" fill="white" stroke="black"/>
<text x="139" y="900" text-anchor="left" dominant-baseline="middle" font-size="100%" rotate="0">機能Bの後処理</text>
<line x1="120" y1="879" x2="120" y2="891" stroke="black"/>
<line x1="120" y1="921" x2="120" y2="930" stroke="black"/>
<polygon points="120 939 112 925 127 925" fill="white" stroke="black"/>
<line x1="111" y1="939" x2="129" y2="939" stroke="black"/>
<text x="118" y="931" text-anchor="left" dominant-baseline="middle" font-size="50%" rotate="0">2</text>
<line x1="120" y1="909" x2="120" y2="921" stroke="black"/>
<circle cx="60" cy="960" r="9" fill="white" stroke="black"/>
<text x="79" y="960" text-anchor="left" dominant-baseline="middle" font-size="100%" rotate="0">処理終了</text>
<line x1="60" y1="249" x2="60" y2="951" stroke="black"/>
<line x1="60" y1="969" x2="60" y2="978" stroke="black"/>
<line x1="51" y1="978" x2="69" y2="978" stroke="black"/>
<circle cx="90" cy="990" r="9" fill="white" stroke="black"/>
<text x="109" y="990" text-anchor="left" dominant-baseline="middle" font-size="100%" rotate="0">戻り値を返す</text>
<line x1="90" y1="999" x2="90" y2="1008" stroke="black"/>
<line x1="81" y1="1008" x2="99" y2="1008" stroke="black"/>
<line x1="90" y1="972" x2="90" y2="981" stroke="black"/>
<line x1="72" y1="972" x2="90" y2="972" stroke="black"/>
<line x1="72" y1="954" x2="72" y2="972" stroke="black"/>
<line x1="120" y1="1011" x2="120" y2="1020" stroke="black"/>
<polygon points="120 1029 112 1015 127 1015" fill="white" stroke="black"/>
<line x1="111" y1="1029" x2="129" y2="1029" stroke="black"/>
<line x1="120" y1="1002" x2="120" y2="1011" stroke="black"/>
<line x1="102" y1="1002" x2="120" y2="1002" stroke="black"/>
<line x1="102" y1="984" x2="102" y2="1002" stroke="black"/>
<line x1="199" y1="115" x2="453" y2="115" stroke="black"/>
<path d="M 199 115 L 207 111 L 207 119" stroke="black" fill="black" />
<line x1="199" y1="125" x2="463" y2="125" stroke="red"/>
<line x1="199" y1="125" x2="473" y2="125" stroke="green"/>
<line x1="279" y1="205" x2="483" y2="205" stroke="blue"/>
<path d="M 279 205 L 287 201 L 287 209" stroke="blue" fill="blue" />
<line x1="279" y1="215" x2="493" y2="215" stroke="yellow"/>
<line x1="261" y1="295" x2="503" y2="295" stroke="purple"/>
<path d="M 261 295 L 269 291 L 269 299" stroke="purple" fill="purple" />
<line x1="291" y1="355" x2="513" y2="355" stroke="orange"/>
<path d="M 291 355 L 299 351 L 299 359" stroke="orange" fill="orange" />
<line x1="291" y1="365" x2="523" y2="365" stroke="turquoise"/>
<line x1="463" y1="445" x2="533" y2="445" stroke="black"/>
<path d="M 463 445 L 471 441 L 471 449" stroke="black" fill="black" />
<line x1="331" y1="515" x2="543" y2="515" stroke="red"/>
<line x1="331" y1="575" x2="553" y2="575" stroke="green"/>
<rect x="574" y="21" width="18" height="18" fill="white" stroke="black"/>
<text x="602" y="30" text-anchor="left" dominant-baseline="middle" font-size="100%" rotate="0">データ1</text>
<rect x="604" y="51" width="18" height="18" fill="white" stroke="black"/>
<text x="632" y="60" text-anchor="left" dominant-baseline="middle" font-size="100%" rotate="0">データ1-1</text>
<line x1="613" y1="42" x2="613" y2="51" stroke="black"/>
<line x1="595" y1="42" x2="613" y2="42" stroke="black"/>
<line x1="595" y1="24" x2="595" y2="42" stroke="black"/>
<rect x="604" y="81" width="18" height="18" fill="white" stroke="black"/>
<text x="632" y="90" text-anchor="left" dominant-baseline="middle" font-size="100%" rotate="0">データ(AAA)</text>
<line x1="613" y1="69" x2="613" y2="81" stroke="black"/>
<rect x="604" y="111" width="18" height="18" fill="white" stroke="black"/>
<text x="632" y="120" text-anchor="left" dominant-baseline="middle" font-size="100%" rotate="0">データ(種類)</text>
<line x1="613" y1="99" x2="613" y2="111" stroke="black"/>
<rect x="574" y="141" width="18" height="18" fill="white" stroke="black"/>
<text x="602" y="150" text-anchor="left" dominant-baseline="middle" font-size="100%" rotate="0">データ2</text>
<rect x="574" y="171" width="18" height="18" fill="white" stroke="black"/>
<text x="602" y="180" text-anchor="left" dominant-baseline="middle" font-size="100%" rotate="0">データ3</text>
<rect x="574" y="201" width="18" height="18" fill="white" stroke="black"/>
<text x="602" y="210" text-anchor="left" dominant-baseline="middle" font-size="100%" rotate="0">データ4</text>
<rect x="574" y="231" width="18" height="18" fill="white" stroke="black"/>
<text x="602" y="240" text-anchor="left" dominant-baseline="middle" font-size="100%" rotate="0">データ5</text>
<rect x="574" y="261" width="18" height="18" fill="white" stroke="black"/>
<text x="602" y="270" text-anchor="left" dominant-baseline="middle" font-size="100%" rotate="0">データ6</text>
<rect x="574" y="291" width="18" height="18" fill="white" stroke="black"/>
<text x="602" y="300" text-anchor="left" dominant-baseline="middle" font-size="100%" rotate="0">データ7</text>
<line x1="453" y1="25" x2="574" y2="25" stroke="black"/>
<line x1="503" y1="55" x2="604" y2="55" stroke="purple"/>
<line x1="543" y1="65" x2="604" y2="65" stroke="red"/>
<path d="M 604 65 L 596 61 L 596 69" stroke="red" fill="red" />
<line x1="553" y1="95" x2="604" y2="95" stroke="green"/>
<path d="M 604 95 L 596 91 L 596 99" stroke="green" fill="green" />
<line x1="533" y1="115" x2="604" y2="115" stroke="black"/>
<line x1="463" y1="155" x2="574" y2="155" stroke="red"/>
<path d="M 574 155 L 566 151 L 566 159" stroke="red" fill="red" />
<line x1="483" y1="145" x2="574" y2="145" stroke="blue"/>
<line x1="493" y1="185" x2="574" y2="185" stroke="yellow"/>
<path d="M 574 185 L 566 181 L 566 189" stroke="yellow" fill="yellow" />
<line x1="513" y1="175" x2="574" y2="175" stroke="orange"/>
<line x1="523" y1="215" x2="574" y2="215" stroke="turquoise"/>
<path d="M 574 215 L 566 211 L 566 219" stroke="turquoise" fill="turquoise" />
<line x1="473" y1="305" x2="574" y2="305" stroke="green"/>
<path d="M 574 305 L 566 301 L 566 309" stroke="green" fill="green" />
<line x1="453" y1="25" x2="453" y2="115" stroke="black"/>
<line x1="463" y1="125" x2="463" y2="155" stroke="red"/>
<line x1="473" y1="125" x2="473" y2="305" stroke="green"/>
<line x1="483" y1="145" x2="483" y2="205" stroke="blue"/>
<line x1="493" y1="185" x2="493" y2="215" stroke="yellow"/>
<line x1="503" y1="55" x2="503" y2="295" stroke="purple"/>
<line x1="513" y1="175" x2="513" y2="355" stroke="orange"/>
<line x1="523" y1="215" x2="523" y2="365" stroke="turquoise"/>
<line x1="533" y1="115" x2="533" y2="445" stroke="black"/>
<line x1="543" y1="65" x2="543" y2="515" stroke="red"/>
<line x1="553" y1="95" x2="553" y2="575" stroke="green"/>
</svg>