<svg xmlns="http://www.w3.org/2000/svg" width="712" height="980" style="background-color: #808d81">
<circle cx="30" cy="30" r="9" fill="white" stroke="black"/>
<text x="49" y="30" text-anchor="left" dominant-baseline="middle" font-size="100%" rotate="0">処理開始</text>
<line x1="30" y1="12" x2="30" y2="21" stroke="black"/>
<line x1="21" y1="12" x2="39" y2="12" stroke="black"/>
<circle cx="30" cy="60" r="9" fill="white" stroke="black"/>
<text x="49" y="60" text-anchor="left" dominant-baseline="middle" font-size="100%" rotate="0">処理レベル0-1</text>
<line x1="30" y1="39" x2="30" y2="51" stroke="black"/>
<circle cx="30" cy="90" r="9" fill="white" stroke="black"/>
<text x="49" y="90" text-anchor="left" dominant-baseline="middle" font-size="100%" rotate="0">処理レベル0-2</text>
<line x1="30" y1="69" x2="30" y2="81" stroke="black"/>
<circle cx="30" cy="120" r="9" fill="white" stroke="black"/>
<text x="49" y="120" text-anchor="left" dominant-baseline="middle" font-size="100%" rotate="0">処理レベル0-3</text>
<line x1="30" y1="99" x2="30" y2="111" stroke="black"/>
<circle cx="60" cy="150" r="9" fill="white" stroke="black"/>
<text x="79" y="150" text-anchor="left" dominant-baseline="middle" font-size="100%" rotate="0">必要な情報を揃える</text>
<line x1="60" y1="132" x2="60" y2="141" stroke="black"/>
<line x1="42" y1="132" x2="60" y2="132" stroke="black"/>
<line x1="42" y1="114" x2="42" y2="132" stroke="black"/>
<circle cx="90" cy="180" r="9" fill="white" stroke="black"/>
<text x="109" y="180" text-anchor="left" dominant-baseline="middle" font-size="100%" rotate="0">排他を取得</text>
<line x1="90" y1="162" x2="90" y2="171" stroke="black"/>
<line x1="72" y1="162" x2="90" y2="162" stroke="black"/>
<line x1="72" y1="144" x2="72" y2="162" stroke="black"/>
<circle cx="90" cy="210" r="9" fill="white" stroke="black"/>
<text x="98" y="209" text-anchor="left" dominant-baseline="middle" font-size="100%" rotate="240">↻</text>
<text x="109" y="210" text-anchor="left" dominant-baseline="middle" font-size="100%" rotate="0">DBから取得</text>
<line x1="90" y1="189" x2="90" y2="201" stroke="black"/>
<circle cx="90" cy="240" r="9" fill="white" stroke="black"/>
<text x="109" y="240" text-anchor="left" dominant-baseline="middle" font-size="100%" rotate="0">排他を解放</text>
<line x1="90" y1="219" x2="90" y2="231" stroke="black"/>
<circle cx="90" cy="270" r="9" fill="white" stroke="black"/>
<text x="109" y="270" text-anchor="left" dominant-baseline="middle" font-size="100%" rotate="0">機能Bの実行</text>
<line x1="90" y1="249" x2="90" y2="261" stroke="black"/>
<line x1="90" y1="279" x2="90" y2="288" stroke="black"/>
<line x1="81" y1="288" x2="99" y2="288" stroke="black"/>
<circle cx="120" cy="300" r="9" fill="white" stroke="black"/>
<text x="139" y="300" text-anchor="left" dominant-baseline="middle" font-size="100%" rotate="0">機能Bの前処理</text>
<line x1="120" y1="282" x2="120" y2="291" stroke="black"/>
<line x1="102" y1="282" x2="120" y2="282" stroke="black"/>
<line x1="102" y1="264" x2="102" y2="282" stroke="black"/>
<circle cx="120" cy="330" r="9" fill="white" stroke="black"/>
<text x="139" y="330" text-anchor="left" dominant-baseline="middle" font-size="100%" rotate="0">機能Bの後処理</text>
<line x1="120" y1="309" x2="120" y2="321" stroke="black"/>
<line x1="120" y1="351" x2="120" y2="360" stroke="black"/>
<polygon points="120 369 112 355 127 355" fill="white" stroke="black"/>
<line x1="111" y1="369" x2="129" y2="369" stroke="black"/>
<text x="118" y="361" text-anchor="left" dominant-baseline="middle" font-size="50%" rotate="0">2</text>
<line x1="120" y1="339" x2="120" y2="351" stroke="black"/>
<circle cx="60" cy="390" r="9" fill="white" stroke="black"/>
<text x="79" y="390" text-anchor="left" dominant-baseline="middle" font-size="100%" rotate="0">処理終了</text>
<line x1="60" y1="159" x2="60" y2="381" stroke="black"/>
<line x1="60" y1="399" x2="60" y2="408" stroke="black"/>
<line x1="51" y1="408" x2="69" y2="408" stroke="black"/>
<circle cx="90" cy="420" r="9" fill="white" stroke="black"/>
<text x="109" y="420" text-anchor="left" dominant-baseline="middle" font-size="100%" rotate="0">戻り値を返す</text>
<line x1="90" y1="429" x2="90" y2="438" stroke="black"/>
<line x1="81" y1="438" x2="99" y2="438" stroke="black"/>
<line x1="90" y1="402" x2="90" y2="411" stroke="black"/>
<line x1="72" y1="402" x2="90" y2="402" stroke="black"/>
<line x1="72" y1="384" x2="72" y2="402" stroke="black"/>
<line x1="120" y1="441" x2="120" y2="450" stroke="black"/>
<polygon points="120 459 112 445 127 445" fill="white" stroke="black"/>
<line x1="111" y1="459" x2="129" y2="459" stroke="black"/>
<line x1="120" y1="432" x2="120" y2="441" stroke="black"/>
<line x1="102" y1="432" x2="120" y2="432" stroke="black"/>
<line x1="102" y1="414" x2="102" y2="432" stroke="black"/>
<line x1="30" y1="129" x2="30" y2="471" stroke="black"/>
<circle cx="60" cy="510" r="9" fill="white" stroke="black"/>
<text x="79" y="510" text-anchor="left" dominant-baseline="middle" font-size="100%" rotate="0">処理開始</text>
<line x1="60" y1="519" x2="60" y2="528" stroke="black"/>
<line x1="51" y1="528" x2="69" y2="528" stroke="black"/>
<line x1="60" y1="492" x2="60" y2="501" stroke="black"/>
<line x1="42" y1="492" x2="60" y2="492" stroke="black"/>
<line x1="42" y1="474" x2="42" y2="492" stroke="black"/>
<circle cx="90" cy="540" r="9" fill="white" stroke="black"/>
<text x="109" y="540" text-anchor="left" dominant-baseline="middle" font-size="100%" rotate="0">入力に応じた処理を行う</text>
<line x1="90" y1="549" x2="90" y2="558" stroke="black"/>
<line x1="81" y1="558" x2="99" y2="558" stroke="black"/>
<line x1="90" y1="522" x2="90" y2="531" stroke="black"/>
<line x1="72" y1="522" x2="90" y2="522" stroke="black"/>
<line x1="72" y1="504" x2="72" y2="522" stroke="black"/>
<circle cx="120" cy="570" r="9" fill="white" stroke="black"/>
<polygon points="127 570 116 576 116 563" fill="white" stroke="black"/>
<text x="139" y="570" text-anchor="left" dominant-baseline="middle" font-size="100%" rotate="0">フラグが有効</text>
<line x1="120" y1="579" x2="120" y2="588" stroke="black"/>
<line x1="111" y1="588" x2="129" y2="588" stroke="black"/>
<line x1="120" y1="552" x2="120" y2="561" stroke="black"/>
<line x1="102" y1="552" x2="120" y2="552" stroke="black"/>
<line x1="102" y1="534" x2="102" y2="552" stroke="black"/>
<line x1="150" y1="591" x2="150" y2="609" stroke="black"/>
<line x1="150" y1="591" x2="165" y2="591" stroke="black"/>
<path d="M 165 591 L 157 587 L 157 595" stroke="black" fill="black" />
<text x="169" y="600" text-anchor="left" dominant-baseline="middle" font-size="100%" rotate="0">(true) フラグが有効である</text>
<line x1="150" y1="582" x2="150" y2="591" stroke="black"/>
<line x1="132" y1="582" x2="150" y2="582" stroke="black"/>
<line x1="132" y1="564" x2="132" y2="582" stroke="black"/>
<circle cx="180" cy="630" r="9" fill="white" stroke="black"/>
<text x="199" y="630" text-anchor="left" dominant-baseline="middle" font-size="100%" rotate="0">成功を返す</text>
<line x1="180" y1="639" x2="180" y2="648" stroke="black"/>
<line x1="171" y1="648" x2="189" y2="648" stroke="black"/>
<line x1="180" y1="612" x2="180" y2="621" stroke="black"/>
<line x1="162" y1="612" x2="180" y2="612" stroke="black"/>
<line x1="162" y1="594" x2="162" y2="612" stroke="black"/>
<line x1="150" y1="651" x2="150" y2="669" stroke="black"/>
<line x1="150" y1="651" x2="165" y2="651" stroke="black"/>
<path d="M 165 651 L 157 647 L 157 655" stroke="black" fill="black" />
<text x="169" y="660" text-anchor="left" dominant-baseline="middle" font-size="100%" rotate="0">(false) フラグが無効である</text>
<line x1="150" y1="609" x2="150" y2="651" stroke="black"/>
<line x1="150" y1="669" x2="150" y2="678" stroke="black"/>
<line x1="141" y1="678" x2="159" y2="678" stroke="black"/>
<circle cx="180" cy="690" r="9" fill="white" stroke="black"/>
<text x="199" y="690" text-anchor="left" dominant-baseline="middle" font-size="100%" rotate="0">失敗を返す</text>
<line x1="180" y1="699" x2="180" y2="708" stroke="black"/>
<line x1="171" y1="708" x2="189" y2="708" stroke="black"/>
<line x1="180" y1="672" x2="180" y2="681" stroke="black"/>
<line x1="162" y1="672" x2="180" y2="672" stroke="black"/>
<line x1="162" y1="654" x2="162" y2="672" stroke="black"/>
<line x1="30" y1="489" x2="30" y2="711" stroke="black"/>
<line x1="30" y1="729" x2="30" y2="738" stroke="black"/>
<line x1="21" y1="738" x2="39" y2="738" stroke="black"/>
<circle cx="60" cy="750" r="9" fill="white" stroke="black"/>
<text x="79" y="750" text-anchor="left" dominant-baseline="middle" font-size="100%" rotate="0">処理開始</text>
<line x1="60" y1="759" x2="60" y2="768" stroke="black"/>
<line x1="51" y1="768" x2="69" y2="768" stroke="black"/>
<line x1="60" y1="732" x2="60" y2="741" stroke="black"/>
<line x1="42" y1="732" x2="60" y2="732" stroke="black"/>
<line x1="42" y1="714" x2="42" y2="732" stroke="black"/>
<circle cx="90" cy="780" r="9" fill="white" stroke="black"/>
<text x="109" y="780" text-anchor="left" dominant-baseline="middle" font-size="100%" rotate="0">入力に応じた処理を行う</text>
<line x1="90" y1="789" x2="90" y2="798" stroke="black"/>
<line x1="81" y1="798" x2="99" y2="798" stroke="black"/>
<line x1="90" y1="762" x2="90" y2="771" stroke="black"/>
<line x1="72" y1="762" x2="90" y2="762" stroke="black"/>
<line x1="72" y1="744" x2="72" y2="762" stroke="black"/>
<circle cx="120" cy="810" r="9" fill="white" stroke="black"/>
<polygon points="127 810 116 816 116 803" fill="white" stroke="black"/>
<text x="139" y="810" text-anchor="left" dominant-baseline="middle" font-size="100%" rotate="0">フラグが有効</text>
<line x1="120" y1="819" x2="120" y2="828" stroke="black"/>
<line x1="111" y1="828" x2="129" y2="828" stroke="black"/>
<line x1="120" y1="792" x2="120" y2="801" stroke="black"/>
<line x1="102" y1="792" x2="120" y2="792" stroke="black"/>
<line x1="102" y1="774" x2="102" y2="792" stroke="black"/>
<line x1="150" y1="831" x2="150" y2="849" stroke="black"/>
<line x1="150" y1="831" x2="165" y2="831" stroke="black"/>
<path d="M 165 831 L 157 827 L 157 835" stroke="black" fill="black" />
<text x="169" y="840" text-anchor="left" dominant-baseline="middle" font-size="100%" rotate="0">(true) フラグが有効である</text>
<line x1="150" y1="822" x2="150" y2="831" stroke="black"/>
<line x1="132" y1="822" x2="150" y2="822" stroke="black"/>
<line x1="132" y1="804" x2="132" y2="822" stroke="black"/>
<circle cx="180" cy="870" r="9" fill="white" stroke="black"/>
<text x="199" y="870" text-anchor="left" dominant-baseline="middle" font-size="100%" rotate="0">成功を返す</text>
<line x1="180" y1="879" x2="180" y2="888" stroke="black"/>
<line x1="171" y1="888" x2="189" y2="888" stroke="black"/>
<line x1="180" y1="852" x2="180" y2="861" stroke="black"/>
<line x1="162" y1="852" x2="180" y2="852" stroke="black"/>
<line x1="162" y1="834" x2="162" y2="852" stroke="black"/>
<line x1="150" y1="891" x2="150" y2="909" stroke="black"/>
<line x1="150" y1="891" x2="165" y2="891" stroke="black"/>
<path d="M 165 891 L 157 887 L 157 895" stroke="black" fill="black" />
<text x="169" y="900" text-anchor="left" dominant-baseline="middle" font-size="100%" rotate="0">(false) フラグが無効である</text>
<line x1="150" y1="849" x2="150" y2="891" stroke="black"/>
<line x1="150" y1="909" x2="150" y2="918" stroke="black"/>
<line x1="141" y1="918" x2="159" y2="918" stroke="black"/>
<circle cx="180" cy="930" r="9" fill="white" stroke="black"/>
<text x="199" y="930" text-anchor="left" dominant-baseline="middle" font-size="100%" rotate="0">失敗を返す</text>
<line x1="180" y1="939" x2="180" y2="948" stroke="black"/>
<line x1="171" y1="948" x2="189" y2="948" stroke="black"/>
<line x1="180" y1="912" x2="180" y2="921" stroke="black"/>
<line x1="162" y1="912" x2="180" y2="912" stroke="black"/>
<line x1="162" y1="894" x2="162" y2="912" stroke="black"/>
<line x1="233" y1="145" x2="377" y2="145" stroke="black"/>
<path d="M 233 145 L 241 141 L 241 149" stroke="black" fill="black" />
<line x1="199" y1="205" x2="387" y2="205" stroke="red"/>
<path d="M 199 205 L 207 201 L 207 209" stroke="red" fill="red" />
<line x1="199" y1="215" x2="397" y2="215" stroke="green"/>
<line x1="199" y1="215" x2="407" y2="215" stroke="blue"/>
<line x1="153" y1="505" x2="417" y2="505" stroke="yellow"/>
<path d="M 153 505 L 161 501 L 161 509" stroke="yellow" fill="yellow" />
<line x1="153" y1="515" x2="427" y2="515" stroke="purple"/>
<line x1="245" y1="565" x2="437" y2="565" stroke="orange"/>
<path d="M 245 565 L 253 561 L 253 569" stroke="orange" fill="orange" />
<line x1="289" y1="635" x2="447" y2="635" stroke="turquoise"/>
<line x1="289" y1="695" x2="457" y2="695" stroke="black"/>
<line x1="153" y1="745" x2="467" y2="745" stroke="red"/>
<path d="M 153 745 L 161 741 L 161 749" stroke="red" fill="red" />
<line x1="153" y1="755" x2="477" y2="755" stroke="green"/>
<line x1="245" y1="805" x2="487" y2="805" stroke="blue"/>
<path d="M 245 805 L 253 801 L 253 809" stroke="blue" fill="blue" />
<line x1="289" y1="875" x2="497" y2="875" stroke="yellow"/>
<line x1="289" y1="935" x2="507" y2="935" stroke="purple"/>
<rect x="528" y="21" width="18" height="18" fill="white" stroke="black"/>
<text x="556" y="30" text-anchor="left" dominant-baseline="middle" font-size="100%" rotate="0">データ1</text>
<rect x="558" y="51" width="18" height="18" fill="white" stroke="black"/>
<text x="586" y="60" text-anchor="left" dominant-baseline="middle" font-size="100%" rotate="0">データ1-1</text>
<line x1="567" y1="42" x2="567" y2="51" stroke="black"/>
<line x1="549" y1="42" x2="567" y2="42" stroke="black"/>
<line x1="549" y1="24" x2="549" y2="42" stroke="black"/>
<rect x="558" y="81" width="18" height="18" fill="white" stroke="black"/>
<text x="586" y="90" text-anchor="left" dominant-baseline="middle" font-size="100%" rotate="0">データ(AAA)</text>
<line x1="567" y1="69" x2="567" y2="81" stroke="black"/>
<rect x="558" y="111" width="18" height="18" fill="white" stroke="black"/>
<text x="586" y="120" text-anchor="left" dominant-baseline="middle" font-size="100%" rotate="0">データ(種類)</text>
<line x1="567" y1="99" x2="567" y2="111" stroke="black"/>
<rect x="588" y="141" width="18" height="18" fill="white" stroke="black"/>
<text x="616" y="150" text-anchor="left" dominant-baseline="middle" font-size="100%" rotate="0">データ(CCC)</text>
<line x1="597" y1="132" x2="597" y2="141" stroke="black"/>
<line x1="579" y1="132" x2="597" y2="132" stroke="black"/>
<line x1="579" y1="114" x2="579" y2="132" stroke="black"/>
<rect x="588" y="171" width="18" height="18" fill="white" stroke="black"/>
<text x="616" y="180" text-anchor="left" dominant-baseline="middle" font-size="100%" rotate="0">データ(DDD)</text>
<line x1="597" y1="159" x2="597" y2="171" stroke="black"/>
<rect x="558" y="201" width="18" height="18" fill="white" stroke="black"/>
<text x="586" y="210" text-anchor="left" dominant-baseline="middle" font-size="100%" rotate="0">データ(EEE)</text>
<line x1="567" y1="129" x2="567" y2="201" stroke="black"/>
<rect x="528" y="231" width="18" height="18" fill="white" stroke="black"/>
<text x="556" y="240" text-anchor="left" dominant-baseline="middle" font-size="100%" rotate="0">データ2</text>
<rect x="558" y="261" width="18" height="18" fill="white" stroke="black"/>
<text x="586" y="270" text-anchor="left" dominant-baseline="middle" font-size="100%" rotate="0">データ(BBB)</text>
<line x1="567" y1="252" x2="567" y2="261" stroke="black"/>
<line x1="549" y1="252" x2="567" y2="252" stroke="black"/>
<line x1="549" y1="234" x2="549" y2="252" stroke="black"/>
<rect x="528" y="291" width="18" height="18" fill="white" stroke="black"/>
<text x="556" y="300" text-anchor="left" dominant-baseline="middle" font-size="100%" rotate="0">データ3</text>
<rect x="528" y="321" width="18" height="18" fill="white" stroke="black"/>
<text x="556" y="330" text-anchor="left" dominant-baseline="middle" font-size="100%" rotate="0">データ4</text>
<rect x="528" y="351" width="18" height="18" fill="white" stroke="black"/>
<text x="556" y="360" text-anchor="left" dominant-baseline="middle" font-size="100%" rotate="0">データ5</text>
<rect x="528" y="381" width="18" height="18" fill="white" stroke="black"/>
<text x="556" y="390" text-anchor="left" dominant-baseline="middle" font-size="100%" rotate="0">データ6</text>
<rect x="528" y="411" width="18" height="18" fill="white" stroke="black"/>
<text x="556" y="420" text-anchor="left" dominant-baseline="middle" font-size="100%" rotate="0">データ7</text>
<rect x="558" y="441" width="18" height="18" fill="white" stroke="black"/>
<text x="586" y="450" text-anchor="left" dominant-baseline="middle" font-size="100%" rotate="0">データ1-1</text>
<line x1="567" y1="432" x2="567" y2="441" stroke="black"/>
<line x1="549" y1="432" x2="567" y2="432" stroke="black"/>
<line x1="549" y1="414" x2="549" y2="432" stroke="black"/>
<rect x="558" y="471" width="18" height="18" fill="white" stroke="black"/>
<text x="586" y="480" text-anchor="left" dominant-baseline="middle" font-size="100%" rotate="0">データ1-2</text>
<line x1="567" y1="459" x2="567" y2="471" stroke="black"/>
<rect x="558" y="501" width="18" height="18" fill="white" stroke="black"/>
<text x="586" y="510" text-anchor="left" dominant-baseline="middle" font-size="100%" rotate="0">データ2-1</text>
<line x1="567" y1="489" x2="567" y2="501" stroke="black"/>
<rect x="588" y="531" width="18" height="18" fill="white" stroke="black"/>
<text x="616" y="540" text-anchor="left" dominant-baseline="middle" font-size="100%" rotate="0">データ2-1-1</text>
<line x1="597" y1="522" x2="597" y2="531" stroke="black"/>
<line x1="579" y1="522" x2="597" y2="522" stroke="black"/>
<line x1="579" y1="504" x2="579" y2="522" stroke="black"/>
<rect x="588" y="561" width="18" height="18" fill="white" stroke="black"/>
<text x="616" y="570" text-anchor="left" dominant-baseline="middle" font-size="100%" rotate="0">データ2-1-2</text>
<line x1="597" y1="549" x2="597" y2="561" stroke="black"/>
<rect x="558" y="591" width="18" height="18" fill="white" stroke="black"/>
<text x="586" y="600" text-anchor="left" dominant-baseline="middle" font-size="100%" rotate="0">データ2-2</text>
<line x1="567" y1="519" x2="567" y2="591" stroke="black"/>
<rect x="588" y="621" width="18" height="18" fill="white" stroke="black"/>
<text x="616" y="630" text-anchor="left" dominant-baseline="middle" font-size="100%" rotate="0">データ2-2-1</text>
<line x1="597" y1="612" x2="597" y2="621" stroke="black"/>
<line x1="579" y1="612" x2="597" y2="612" stroke="black"/>
<line x1="579" y1="594" x2="579" y2="612" stroke="black"/>
<path d="M 528 30 L 537 21 L 537 39 Z" stroke="black" fill="fuchsia" />
<path d="M 546 30 L 537 21 L 537 39 Z" stroke="black" fill="aqua" />
<line x1="387" y1="25" x2="528" y2="25" stroke="red"/>
<line x1="417" y1="55" x2="558" y2="55" stroke="yellow"/>
<line x1="437" y1="55" x2="558" y2="55" stroke="orange"/>
<line x1="467" y1="55" x2="558" y2="55" stroke="red"/>
<line x1="487" y1="55" x2="558" y2="55" stroke="blue"/>
<path d="M 546 240 L 537 231 L 537 249 Z" stroke="black" fill="aqua" />
<line x1="397" y1="245" x2="528" y2="245" stroke="green"/>
<path d="M 528 245 L 520 241 L 520 249" stroke="green" fill="green" />
<path d="M 528 300 L 537 291 L 537 309 Z" stroke="black" fill="fuchsia" />
<line x1="377" y1="325" x2="528" y2="325" stroke="black"/>
<line x1="407" y1="425" x2="528" y2="425" stroke="blue"/>
<path d="M 528 425 L 520 421 L 520 429" stroke="blue" fill="blue" />
<line x1="417" y1="445" x2="558" y2="445" stroke="yellow"/>
<line x1="437" y1="445" x2="558" y2="445" stroke="orange"/>
<line x1="467" y1="445" x2="558" y2="445" stroke="red"/>
<line x1="487" y1="445" x2="558" y2="445" stroke="blue"/>
<line x1="427" y1="485" x2="558" y2="485" stroke="purple"/>
<path d="M 558 485 L 550 481 L 550 489" stroke="purple" fill="purple" />
<line x1="447" y1="485" x2="558" y2="485" stroke="turquoise"/>
<path d="M 558 485 L 550 481 L 550 489" stroke="turquoise" fill="turquoise" />
<line x1="457" y1="485" x2="558" y2="485" stroke="black"/>
<path d="M 558 485 L 550 481 L 550 489" stroke="black" fill="black" />
<line x1="477" y1="485" x2="558" y2="485" stroke="green"/>
<path d="M 558 485 L 550 481 L 550 489" stroke="green" fill="green" />
<line x1="497" y1="485" x2="558" y2="485" stroke="yellow"/>
<path d="M 558 485 L 550 481 L 550 489" stroke="yellow" fill="yellow" />
<line x1="507" y1="485" x2="558" y2="485" stroke="purple"/>
<path d="M 558 485 L 550 481 L 550 489" stroke="purple" fill="purple" />
<line x1="377" y1="145" x2="377" y2="325" stroke="black"/>
<line x1="387" y1="25" x2="387" y2="205" stroke="red"/>
<line x1="397" y1="215" x2="397" y2="245" stroke="green"/>
<line x1="407" y1="215" x2="407" y2="425" stroke="blue"/>
<line x1="417" y1="445" x2="417" y2="505" stroke="yellow"/>
<line x1="427" y1="485" x2="427" y2="515" stroke="purple"/>
<line x1="437" y1="445" x2="437" y2="565" stroke="orange"/>
<line x1="447" y1="485" x2="447" y2="635" stroke="turquoise"/>
<line x1="457" y1="485" x2="457" y2="695" stroke="black"/>
<line x1="467" y1="445" x2="467" y2="745" stroke="red"/>
<line x1="477" y1="485" x2="477" y2="755" stroke="green"/>
<line x1="487" y1="445" x2="487" y2="805" stroke="blue"/>
<line x1="497" y1="485" x2="497" y2="875" stroke="yellow"/>
<line x1="507" y1="485" x2="507" y2="935" stroke="purple"/>
</svg>