<svg xmlns="http://www.w3.org/2000/svg" width="446" height="410" style="background-color: #808d81">
<circle cx="30" cy="30" r="9" fill="white" stroke="black"/>
<text x="49" y="30" text-anchor="left" dominant-baseline="middle" font-size="100%" rotate="0">処理開始</text>
<line x1="30" y1="12" x2="30" y2="21" stroke="black"/>
<line x1="21" y1="12" x2="39" y2="12" stroke="black"/>
<line x1="30" y1="39" x2="30" y2="48" stroke="black"/>
<line x1="21" y1="48" x2="39" y2="48" stroke="black"/>
<circle cx="60" cy="60" r="9" fill="white" stroke="black"/>
<text x="79" y="60" text-anchor="left" dominant-baseline="middle" font-size="100%" rotate="0">必要な情報を揃える</text>
<line x1="60" y1="42" x2="60" y2="51" stroke="black"/>
<line x1="42" y1="42" x2="60" y2="42" stroke="black"/>
<line x1="42" y1="24" x2="42" y2="42" stroke="black"/>
<circle cx="90" cy="90" r="9" fill="white" stroke="black"/>
<text x="109" y="90" text-anchor="left" dominant-baseline="middle" font-size="100%" rotate="0">排他を取得</text>
<line x1="90" y1="72" x2="90" y2="81" stroke="black"/>
<line x1="72" y1="72" x2="90" y2="72" stroke="black"/>
<line x1="72" y1="54" x2="72" y2="72" stroke="black"/>
<circle cx="90" cy="120" r="9" fill="white" stroke="black"/>
<text x="98" y="119" text-anchor="left" dominant-baseline="middle" font-size="100%" rotate="240">↻</text>
<text x="109" y="120" text-anchor="left" dominant-baseline="middle" font-size="100%" rotate="0">DBから取得</text>
<line x1="90" y1="99" x2="90" y2="111" stroke="black"/>
<circle cx="90" cy="150" r="9" fill="white" stroke="black"/>
<text x="109" y="150" text-anchor="left" dominant-baseline="middle" font-size="100%" rotate="0">排他を解放</text>
<line x1="90" y1="129" x2="90" y2="141" stroke="black"/>
<circle cx="90" cy="180" r="9" fill="white" stroke="black"/>
<text x="109" y="180" text-anchor="left" dominant-baseline="middle" font-size="100%" rotate="0">機能Bの実行</text>
<line x1="90" y1="159" x2="90" y2="171" stroke="black"/>
<line x1="90" y1="189" x2="90" y2="198" stroke="black"/>
<line x1="81" y1="198" x2="99" y2="198" stroke="black"/>
<circle cx="120" cy="210" r="9" fill="white" stroke="black"/>
<text x="139" y="210" text-anchor="left" dominant-baseline="middle" font-size="100%" rotate="0">機能Bの前処理</text>
<line x1="120" y1="192" x2="120" y2="201" stroke="black"/>
<line x1="102" y1="192" x2="120" y2="192" stroke="black"/>
<line x1="102" y1="174" x2="102" y2="192" stroke="black"/>
<circle cx="120" cy="240" r="9" fill="white" stroke="black"/>
<text x="139" y="240" text-anchor="left" dominant-baseline="middle" font-size="100%" rotate="0">機能Bの後処理</text>
<line x1="120" y1="219" x2="120" y2="231" stroke="black"/>
<line x1="120" y1="261" x2="120" y2="270" stroke="black"/>
<polygon points="120 279 112 265 127 265" fill="white" stroke="black"/>
<line x1="111" y1="279" x2="129" y2="279" stroke="black"/>
<text x="118" y="271" text-anchor="left" dominant-baseline="middle" font-size="50%" rotate="0">2</text>
<line x1="120" y1="249" x2="120" y2="261" stroke="black"/>
<circle cx="60" cy="300" r="9" fill="white" stroke="black"/>
<text x="79" y="300" text-anchor="left" dominant-baseline="middle" font-size="100%" rotate="0">処理終了</text>
<line x1="60" y1="69" x2="60" y2="291" stroke="black"/>
<line x1="60" y1="309" x2="60" y2="318" stroke="black"/>
<line x1="51" y1="318" x2="69" y2="318" stroke="black"/>
<circle cx="90" cy="330" r="9" fill="white" stroke="black"/>
<text x="109" y="330" text-anchor="left" dominant-baseline="middle" font-size="100%" rotate="0">戻り値を返す</text>
<line x1="90" y1="339" x2="90" y2="348" stroke="black"/>
<line x1="81" y1="348" x2="99" y2="348" stroke="black"/>
<line x1="90" y1="312" x2="90" y2="321" stroke="black"/>
<line x1="72" y1="312" x2="90" y2="312" stroke="black"/>
<line x1="72" y1="294" x2="72" y2="312" stroke="black"/>
<line x1="120" y1="351" x2="120" y2="360" stroke="black"/>
<polygon points="120 369 112 355 127 355" fill="white" stroke="black"/>
<line x1="111" y1="369" x2="129" y2="369" stroke="black"/>
<line x1="120" y1="342" x2="120" y2="351" stroke="black"/>
<line x1="102" y1="342" x2="120" y2="342" stroke="black"/>
<line x1="102" y1="324" x2="102" y2="342" stroke="black"/>
<line x1="199" y1="115" x2="251" y2="115" stroke="black"/>
<path d="M 199 115 L 207 111 L 207 119" stroke="black" fill="black" />
<line x1="199" y1="125" x2="261" y2="125" stroke="red"/>
<line x1="199" y1="125" x2="271" y2="125" stroke="green"/>
<rect x="292" y="21" width="18" height="18" fill="white" stroke="black"/>
<text x="320" y="30" text-anchor="left" dominant-baseline="middle" font-size="100%" rotate="0">データ1</text>
<line x1="251" y1="25" x2="292" y2="25" stroke="black"/>
<rect x="322" y="51" width="18" height="18" fill="white" stroke="black"/>
<text x="350" y="60" text-anchor="left" dominant-baseline="middle" font-size="100%" rotate="0">データ1-1</text>
<rect x="322" y="81" width="18" height="18" fill="white" stroke="black"/>
<text x="350" y="90" text-anchor="left" dominant-baseline="middle" font-size="100%" rotate="0">データ(AAA)</text>
<rect x="322" y="111" width="18" height="18" fill="white" stroke="black"/>
<text x="350" y="120" text-anchor="left" dominant-baseline="middle" font-size="100%" rotate="0">データ(種類)</text>
<rect x="292" y="141" width="18" height="18" fill="white" stroke="black"/>
<text x="320" y="150" text-anchor="left" dominant-baseline="middle" font-size="100%" rotate="0">データ2</text>
<line x1="261" y1="155" x2="292" y2="155" stroke="red"/>
<path d="M 292 155 L 284 151 L 284 159" stroke="red" fill="red" />
<rect x="292" y="171" width="18" height="18" fill="white" stroke="black"/>
<text x="320" y="180" text-anchor="left" dominant-baseline="middle" font-size="100%" rotate="0">データ3</text>
<rect x="292" y="201" width="18" height="18" fill="white" stroke="black"/>
<text x="320" y="210" text-anchor="left" dominant-baseline="middle" font-size="100%" rotate="0">データ4</text>
<rect x="292" y="231" width="18" height="18" fill="white" stroke="black"/>
<text x="320" y="240" text-anchor="left" dominant-baseline="middle" font-size="100%" rotate="0">データ5</text>
<rect x="292" y="261" width="18" height="18" fill="white" stroke="black"/>
<text x="320" y="270" text-anchor="left" dominant-baseline="middle" font-size="100%" rotate="0">SJIS</text>
<rect x="292" y="291" width="18" height="18" fill="white" stroke="black"/>
<text x="320" y="300" text-anchor="left" dominant-baseline="middle" font-size="100%" rotate="0">データ7</text>
<line x1="271" y1="305" x2="292" y2="305" stroke="green"/>
<path d="M 292 305 L 284 301 L 284 309" stroke="green" fill="green" />
<line x1="251" y1="25" x2="251" y2="115" stroke="black"/>
<line x1="261" y1="125" x2="261" y2="155" stroke="red"/>
<line x1="271" y1="125" x2="271" y2="305" stroke="green"/>
</svg>