<svg xmlns="http://www.w3.org/2000/svg" width="486" height="500" style="background-color: #808d81">
<circle cx="30" cy="30" r="9" fill="white" stroke="black"/>
<text x="49" y="30" text-anchor="left" dominant-baseline="middle" font-size="100%" rotate="0">処理開始</text>
<line x1="30" y1="12" x2="30" y2="21" stroke="black"/>
<line x1="21" y1="12" x2="39" y2="12" stroke="black"/>
<circle cx="30" cy="60" r="9" fill="white" stroke="black"/>
<text x="49" y="60" text-anchor="left" dominant-baseline="middle" font-size="100%" rotate="0">処理レベル0-1</text>
<line x1="30" y1="39" x2="30" y2="51" stroke="black"/>
<circle cx="30" cy="90" r="9" fill="white" stroke="black"/>
<text x="49" y="90" text-anchor="left" dominant-baseline="middle" font-size="100%" rotate="0">処理レベル0-2</text>
<line x1="30" y1="69" x2="30" y2="81" stroke="black"/>
<circle cx="30" cy="120" r="9" fill="white" stroke="black"/>
<text x="49" y="120" text-anchor="left" dominant-baseline="middle" font-size="100%" rotate="0">処理レベル0-3</text>
<line x1="30" y1="99" x2="30" y2="111" stroke="black"/>
<line x1="30" y1="129" x2="30" y2="138" stroke="black"/>
<line x1="21" y1="138" x2="39" y2="138" stroke="black"/>
<circle cx="60" cy="150" r="9" fill="white" stroke="black"/>
<text x="79" y="150" text-anchor="left" dominant-baseline="middle" font-size="100%" rotate="0">必要な情報を揃える</text>
<line x1="60" y1="132" x2="60" y2="141" stroke="black"/>
<line x1="42" y1="132" x2="60" y2="132" stroke="black"/>
<line x1="42" y1="114" x2="42" y2="132" stroke="black"/>
<circle cx="90" cy="180" r="9" fill="white" stroke="black"/>
<text x="109" y="180" text-anchor="left" dominant-baseline="middle" font-size="100%" rotate="0">排他を取得</text>
<line x1="90" y1="162" x2="90" y2="171" stroke="black"/>
<line x1="72" y1="162" x2="90" y2="162" stroke="black"/>
<line x1="72" y1="144" x2="72" y2="162" stroke="black"/>
<circle cx="90" cy="210" r="9" fill="white" stroke="black"/>
<text x="98" y="209" text-anchor="left" dominant-baseline="middle" font-size="100%" rotate="240">↻</text>
<text x="109" y="210" text-anchor="left" dominant-baseline="middle" font-size="100%" rotate="0">DBから取得</text>
<line x1="90" y1="189" x2="90" y2="201" stroke="black"/>
<circle cx="90" cy="240" r="9" fill="white" stroke="black"/>
<text x="109" y="240" text-anchor="left" dominant-baseline="middle" font-size="100%" rotate="0">排他を解放</text>
<line x1="90" y1="219" x2="90" y2="231" stroke="black"/>
<circle cx="90" cy="270" r="9" fill="white" stroke="black"/>
<text x="109" y="270" text-anchor="left" dominant-baseline="middle" font-size="100%" rotate="0">機能Bの実行</text>
<line x1="90" y1="249" x2="90" y2="261" stroke="black"/>
<line x1="90" y1="279" x2="90" y2="288" stroke="black"/>
<line x1="81" y1="288" x2="99" y2="288" stroke="black"/>
<circle cx="120" cy="300" r="9" fill="white" stroke="black"/>
<text x="139" y="300" text-anchor="left" dominant-baseline="middle" font-size="100%" rotate="0">機能Bの前処理</text>
<line x1="120" y1="282" x2="120" y2="291" stroke="black"/>
<line x1="102" y1="282" x2="120" y2="282" stroke="black"/>
<line x1="102" y1="264" x2="102" y2="282" stroke="black"/>
<circle cx="120" cy="330" r="9" fill="white" stroke="black"/>
<text x="139" y="330" text-anchor="left" dominant-baseline="middle" font-size="100%" rotate="0">機能Bの後処理</text>
<line x1="120" y1="309" x2="120" y2="321" stroke="black"/>
<line x1="120" y1="351" x2="120" y2="360" stroke="black"/>
<polygon points="120 369 112 355 127 355" fill="white" stroke="black"/>
<line x1="111" y1="369" x2="129" y2="369" stroke="black"/>
<text x="118" y="361" text-anchor="left" dominant-baseline="middle" font-size="50%" rotate="0">2</text>
<line x1="120" y1="339" x2="120" y2="351" stroke="black"/>
<circle cx="60" cy="390" r="9" fill="white" stroke="black"/>
<text x="79" y="390" text-anchor="left" dominant-baseline="middle" font-size="100%" rotate="0">処理終了</text>
<line x1="60" y1="159" x2="60" y2="381" stroke="black"/>
<line x1="60" y1="399" x2="60" y2="408" stroke="black"/>
<line x1="51" y1="408" x2="69" y2="408" stroke="black"/>
<circle cx="90" cy="420" r="9" fill="white" stroke="black"/>
<text x="109" y="420" text-anchor="left" dominant-baseline="middle" font-size="100%" rotate="0">戻り値を返す</text>
<line x1="90" y1="429" x2="90" y2="438" stroke="black"/>
<line x1="81" y1="438" x2="99" y2="438" stroke="black"/>
<line x1="90" y1="402" x2="90" y2="411" stroke="black"/>
<line x1="72" y1="402" x2="90" y2="402" stroke="black"/>
<line x1="72" y1="384" x2="72" y2="402" stroke="black"/>
<line x1="120" y1="441" x2="120" y2="450" stroke="black"/>
<polygon points="120 459 112 445 127 445" fill="white" stroke="black"/>
<line x1="111" y1="459" x2="129" y2="459" stroke="black"/>
<line x1="120" y1="432" x2="120" y2="441" stroke="black"/>
<line x1="102" y1="432" x2="120" y2="432" stroke="black"/>
<line x1="102" y1="414" x2="102" y2="432" stroke="black"/>
<line x1="233" y1="145" x2="251" y2="145" stroke="black"/>
<path d="M 233 145 L 241 141 L 241 149" stroke="black" fill="black" />
<line x1="199" y1="205" x2="261" y2="205" stroke="red"/>
<path d="M 199 205 L 207 201 L 207 209" stroke="red" fill="red" />
<line x1="199" y1="215" x2="271" y2="215" stroke="green"/>
<line x1="199" y1="215" x2="281" y2="215" stroke="blue"/>
<rect x="302" y="21" width="18" height="18" fill="white" stroke="black"/>
<text x="330" y="30" text-anchor="left" dominant-baseline="middle" font-size="100%" rotate="0">データ1</text>
<rect x="332" y="51" width="18" height="18" fill="white" stroke="black"/>
<text x="360" y="60" text-anchor="left" dominant-baseline="middle" font-size="100%" rotate="0">データ1-1</text>
<line x1="341" y1="42" x2="341" y2="51" stroke="black"/>
<line x1="323" y1="42" x2="341" y2="42" stroke="black"/>
<line x1="323" y1="24" x2="323" y2="42" stroke="black"/>
<rect x="332" y="81" width="18" height="18" fill="white" stroke="black"/>
<text x="360" y="90" text-anchor="left" dominant-baseline="middle" font-size="100%" rotate="0">データ(AAA)</text>
<line x1="341" y1="69" x2="341" y2="81" stroke="black"/>
<rect x="332" y="111" width="18" height="18" fill="white" stroke="black"/>
<text x="360" y="120" text-anchor="left" dominant-baseline="middle" font-size="100%" rotate="0">データ(種類)</text>
<line x1="341" y1="99" x2="341" y2="111" stroke="black"/>
<rect x="362" y="141" width="18" height="18" fill="white" stroke="black"/>
<text x="390" y="150" text-anchor="left" dominant-baseline="middle" font-size="100%" rotate="0">データ(CCC)</text>
<line x1="371" y1="132" x2="371" y2="141" stroke="black"/>
<line x1="353" y1="132" x2="371" y2="132" stroke="black"/>
<line x1="353" y1="114" x2="353" y2="132" stroke="black"/>
<rect x="362" y="171" width="18" height="18" fill="white" stroke="black"/>
<text x="390" y="180" text-anchor="left" dominant-baseline="middle" font-size="100%" rotate="0">データ(DDD)</text>
<line x1="371" y1="159" x2="371" y2="171" stroke="black"/>
<rect x="332" y="201" width="18" height="18" fill="white" stroke="black"/>
<text x="360" y="210" text-anchor="left" dominant-baseline="middle" font-size="100%" rotate="0">データ(EEE)</text>
<line x1="341" y1="129" x2="341" y2="201" stroke="black"/>
<rect x="302" y="231" width="18" height="18" fill="white" stroke="black"/>
<text x="330" y="240" text-anchor="left" dominant-baseline="middle" font-size="100%" rotate="0">データ2</text>
<rect x="332" y="261" width="18" height="18" fill="white" stroke="black"/>
<text x="360" y="270" text-anchor="left" dominant-baseline="middle" font-size="100%" rotate="0">データ(BBB)</text>
<line x1="341" y1="252" x2="341" y2="261" stroke="black"/>
<line x1="323" y1="252" x2="341" y2="252" stroke="black"/>
<line x1="323" y1="234" x2="323" y2="252" stroke="black"/>
<rect x="302" y="291" width="18" height="18" fill="white" stroke="black"/>
<text x="330" y="300" text-anchor="left" dominant-baseline="middle" font-size="100%" rotate="0">データ3</text>
<rect x="302" y="321" width="18" height="18" fill="white" stroke="black"/>
<text x="330" y="330" text-anchor="left" dominant-baseline="middle" font-size="100%" rotate="0">データ4</text>
<rect x="302" y="351" width="18" height="18" fill="white" stroke="black"/>
<text x="330" y="360" text-anchor="left" dominant-baseline="middle" font-size="100%" rotate="0">データ5</text>
<rect x="302" y="381" width="18" height="18" fill="white" stroke="black"/>
<text x="330" y="390" text-anchor="left" dominant-baseline="middle" font-size="100%" rotate="0">データ6</text>
<rect x="302" y="411" width="18" height="18" fill="white" stroke="black"/>
<text x="330" y="420" text-anchor="left" dominant-baseline="middle" font-size="100%" rotate="0">データ7</text>
<path d="M 302 30 L 311 21 L 311 39 Z" stroke="black" fill="fuchsia" />
<path d="M 320 30 L 311 21 L 311 39 Z" stroke="black" fill="aqua" />
<line x1="261" y1="25" x2="302" y2="25" stroke="red"/>
<path d="M 320 240 L 311 231 L 311 249 Z" stroke="black" fill="aqua" />
<line x1="271" y1="245" x2="302" y2="245" stroke="green"/>
<path d="M 302 245 L 294 241 L 294 249" stroke="green" fill="green" />
<path d="M 302 300 L 311 291 L 311 309 Z" stroke="black" fill="fuchsia" />
<line x1="251" y1="325" x2="302" y2="325" stroke="black"/>
<line x1="281" y1="425" x2="302" y2="425" stroke="blue"/>
<path d="M 302 425 L 294 421 L 294 429" stroke="blue" fill="blue" />
<line x1="251" y1="145" x2="251" y2="325" stroke="black"/>
<line x1="261" y1="25" x2="261" y2="205" stroke="red"/>
<line x1="271" y1="215" x2="271" y2="245" stroke="green"/>
<line x1="281" y1="215" x2="281" y2="425" stroke="blue"/>
</svg>