<?xml version="1.0" encoding="UTF-8" standalone="no"?>
<!DOCTYPE svg PUBLIC "-//W3C//DTD SVG 1.1//EN"
 "http://www.w3.org/Graphics/SVG/1.1/DTD/svg11.dtd">
<!-- Generated by graphviz version 2.49.0 (20210828.1703)
 -->
<!-- Title: classes Pages: 1 -->
<svg width="3876pt" height="619pt"
 viewBox="0.00 0.00 3876.00 619.00" xmlns="http://www.w3.org/2000/svg" xmlns:xlink="http://www.w3.org/1999/xlink">
<g id="graph0" class="graph" transform="scale(1 1) rotate(0) translate(4 615)">
<title>classes</title>
<polygon fill="white" stroke="transparent" points="-4,4 -4,-615 3872,-615 3872,4 -4,4"/>
<!-- src.define.Coordinate -->
<g id="node1" class="node">
<title>src.define.Coordinate</title>
<polygon fill="none" stroke="black" points="13,-173 13,-257 92,-257 92,-173 13,-173"/>
<text text-anchor="start" x="21" y="-241.8" font-family="Times New Roman,serif" font-size="14.00">Coordinate</text>
<polyline fill="none" stroke="black" points="13,-234 92,-234 "/>
<text text-anchor="start" x="37" y="-218.8" font-family="Times New Roman,serif" font-size="14.00">x : int</text>
<text text-anchor="start" x="37" y="-203.8" font-family="Times New Roman,serif" font-size="14.00">y : int</text>
<polyline fill="none" stroke="black" points="13,-196 92,-196 "/>
<text text-anchor="start" x="50.5" y="-180.8" font-family="Times New Roman,serif" font-size="14.00"> </text>
</g>
<!-- src.define.Line -->
<g id="node9" class="node">
<title>src.define.Line</title>
<polygon fill="none" stroke="black" points="0,-496.5 0,-595.5 105,-595.5 105,-496.5 0,-496.5"/>
<text text-anchor="start" x="40" y="-580.3" font-family="Times New Roman,serif" font-size="14.00">Line</text>
<polyline fill="none" stroke="black" points="0,-572.5 105,-572.5 "/>
<text text-anchor="start" x="40" y="-557.3" font-family="Times New Roman,serif" font-size="14.00">end</text>
<text text-anchor="start" x="40" y="-542.3" font-family="Times New Roman,serif" font-size="14.00">start</text>
<polyline fill="none" stroke="black" points="0,-534.5 105,-534.5 "/>
<text text-anchor="start" x="8" y="-519.3" font-family="Times New Roman,serif" font-size="14.00">line_height(): int</text>
<text text-anchor="start" x="8" y="-504.3" font-family="Times New Roman,serif" font-size="14.00">line_width(): int</text>
</g>
<!-- src.define.Coordinate&#45;&gt;src.define.Line -->
<g id="edge1" class="edge">
<title>src.define.Coordinate&#45;&gt;src.define.Line</title>
<path fill="none" stroke="black" d="M42.9,-257.21C32.78,-306.35 19.58,-390.9 29.5,-463 30.48,-470.12 31.92,-477.5 33.6,-484.78"/>
<polygon fill="black" stroke="black" points="33.62,-484.83 38.95,-489.67 36.53,-496.47 31.19,-491.62 33.62,-484.83"/>
<text text-anchor="middle" x="42" y="-451.8" font-family="Times New Roman,serif" font-size="14.00" fill="green">start</text>
</g>
<!-- src.define.Coordinate&#45;&gt;src.define.Line -->
<g id="edge2" class="edge">
<title>src.define.Coordinate&#45;&gt;src.define.Line</title>
<path fill="none" stroke="black" d="M53.34,-257.08C54.23,-306.1 55.38,-390.53 54.5,-463 54.42,-469.93 54.29,-477.19 54.14,-484.41"/>
<polygon fill="black" stroke="black" points="54.14,-484.44 58.01,-490.53 53.88,-496.44 50.01,-490.35 54.14,-484.44"/>
<text text-anchor="middle" x="66" y="-451.8" font-family="Times New Roman,serif" font-size="14.00" fill="green">end</text>
</g>
<!-- src.define.DataInfo -->
<g id="node2" class="node">
<title>src.define.DataInfo</title>
<polygon fill="none" stroke="black" points="110,-173 110,-257 325,-257 325,-173 110,-173"/>
<text text-anchor="start" x="193" y="-241.8" font-family="Times New Roman,serif" font-size="14.00">DataInfo</text>
<polyline fill="none" stroke="black" points="110,-234 325,-234 "/>
<text text-anchor="start" x="118" y="-218.8" font-family="Times New Roman,serif" font-size="14.00">connect_line : Process2Data | None</text>
<text text-anchor="start" x="118" y="-203.8" font-family="Times New Roman,serif" font-size="14.00">name : str</text>
<polyline fill="none" stroke="black" points="110,-196 325,-196 "/>
<text text-anchor="start" x="215.5" y="-180.8" font-family="Times New Roman,serif" font-size="14.00"> </text>
</g>
<!-- src.define.DiagramElement -->
<g id="node3" class="node">
<title>src.define.DiagramElement</title>
<polygon fill="none" stroke="black" points="370,-481.5 370,-610.5 501,-610.5 501,-481.5 370,-481.5"/>
<text text-anchor="start" x="390" y="-595.3" font-family="Times New Roman,serif" font-size="14.00">DiagramElement</text>
<polyline fill="none" stroke="black" points="370,-587.5 501,-587.5 "/>
<text text-anchor="start" x="378" y="-572.3" font-family="Times New Roman,serif" font-size="14.00">LEVEL_SHIFT : int</text>
<text text-anchor="start" x="378" y="-557.3" font-family="Times New Roman,serif" font-size="14.00">end_x : int</text>
<text text-anchor="start" x="378" y="-542.3" font-family="Times New Roman,serif" font-size="14.00">line_info</text>
<text text-anchor="start" x="378" y="-527.3" font-family="Times New Roman,serif" font-size="14.00">x : int</text>
<text text-anchor="start" x="378" y="-512.3" font-family="Times New Roman,serif" font-size="14.00">y : int</text>
<polyline fill="none" stroke="black" points="370,-504.5 501,-504.5 "/>
<text text-anchor="start" x="433.5" y="-489.3" font-family="Times New Roman,serif" font-size="14.00"> </text>
</g>
<!-- src.parse.DiagramParser -->
<g id="node4" class="node">
<title>src.parse.DiagramParser</title>
<polygon fill="none" stroke="black" points="546.5,-128 546.5,-302 842.5,-302 842.5,-128 546.5,-128"/>
<text text-anchor="start" x="653.5" y="-286.8" font-family="Times New Roman,serif" font-size="14.00">DiagramParser</text>
<polyline fill="none" stroke="black" points="546.5,-279 842.5,-279 "/>
<text text-anchor="start" x="617.5" y="-263.8" font-family="Times New Roman,serif" font-size="14.00">data_line_info_list : list</text>
<text text-anchor="start" x="617.5" y="-248.8" font-family="Times New Roman,serif" font-size="14.00">line_info_list : list[LineInfo]</text>
<text text-anchor="start" x="617.5" y="-233.8" font-family="Times New Roman,serif" font-size="14.00">process_line_info_list : list</text>
<polyline fill="none" stroke="black" points="546.5,-226 842.5,-226 "/>
<text text-anchor="start" x="554.5" y="-210.8" font-family="Times New Roman,serif" font-size="14.00">convert_lines2lineinfo(lines: list[str]): list[LineInfo]</text>
<text text-anchor="start" x="554.5" y="-195.8" font-family="Times New Roman,serif" font-size="14.00">create_data_info_list_no(): list[LineInfo]</text>
<text text-anchor="start" x="554.5" y="-180.8" font-family="Times New Roman,serif" font-size="14.00">create_process_info_list_no(): list[LineInfo]</text>
<text text-anchor="start" x="554.5" y="-165.8" font-family="Times New Roman,serif" font-size="14.00">update_line_io(): None</text>
<text text-anchor="start" x="554.5" y="-150.8" font-family="Times New Roman,serif" font-size="14.00">update_line_level(): None</text>
<text text-anchor="start" x="554.5" y="-135.8" font-family="Times New Roman,serif" font-size="14.00">update_line_type(): None</text>
</g>
<!-- src.draw_svg.DrawFigure -->
<g id="node5" class="node">
<title>src.draw_svg.DrawFigure</title>
<polygon fill="none" stroke="black" points="931.5,-511.5 931.5,-580.5 1305.5,-580.5 1305.5,-511.5 931.5,-511.5"/>
<text text-anchor="start" x="1085.5" y="-565.3" font-family="Times New Roman,serif" font-size="14.00">DrawFigure</text>
<polyline fill="none" stroke="black" points="931.5,-557.5 1305.5,-557.5 "/>
<text text-anchor="start" x="1091" y="-542.3" font-family="Times New Roman,serif" font-size="14.00">draw_svg</text>
<polyline fill="none" stroke="black" points="931.5,-534.5 1305.5,-534.5 "/>
<text text-anchor="start" x="939.5" y="-519.3" font-family="Times New Roman,serif" font-size="14.00">draw_figure_method(svg: list[str], element: DiagramElement): int</text>
</g>
<!-- src.draw_svg.DrawSvg -->
<g id="node6" class="node">
<title>src.draw_svg.DrawSvg</title>
<polygon fill="none" stroke="black" points="861,-0.5 861,-429.5 1376,-429.5 1376,-0.5 861,-0.5"/>
<text text-anchor="start" x="1092.5" y="-414.3" font-family="Times New Roman,serif" font-size="14.00">DrawSvg</text>
<polyline fill="none" stroke="black" points="861,-406.5 1376,-406.5 "/>
<text text-anchor="start" x="1019.5" y="-391.3" font-family="Times New Roman,serif" font-size="14.00">ARROW_HEAD : int</text>
<text text-anchor="start" x="1019.5" y="-376.3" font-family="Times New Roman,serif" font-size="14.00">CIRCLE_R : int</text>
<text text-anchor="start" x="1019.5" y="-361.3" font-family="Times New Roman,serif" font-size="14.00">SPACE_FIGURE_TO_TEXT : int</text>
<polyline fill="none" stroke="black" points="861,-353.5 1376,-353.5 "/>
<text text-anchor="start" x="869" y="-338.3" font-family="Times New Roman,serif" font-size="14.00">draw_arrow_l(svg: list[str], center_x: int, center_y: int, length: int, color: str): None</text>
<text text-anchor="start" x="869" y="-323.3" font-family="Times New Roman,serif" font-size="14.00">draw_arrow_r(svg: list[str], center_x: int, center_y: int, length: int, color: str): None</text>
<text text-anchor="start" x="869" y="-308.3" font-family="Times New Roman,serif" font-size="14.00">draw_figure_branch(svg: list[str], center_x: int, center_y: int, text: str): int</text>
<text text-anchor="start" x="869" y="-293.3" font-family="Times New Roman,serif" font-size="14.00">draw_figure_data(svg: list[str], center_x: int, center_y: int, text: str): int</text>
<text text-anchor="start" x="869" y="-278.3" font-family="Times New Roman,serif" font-size="14.00">draw_figure_data_func_in(svg: list[str], center_x: int, center_y: int): None</text>
<text text-anchor="start" x="869" y="-263.3" font-family="Times New Roman,serif" font-size="14.00">draw_figure_data_func_out(svg: list[str], center_x: int, center_y: int): None</text>
<text text-anchor="start" x="869" y="-248.3" font-family="Times New Roman,serif" font-size="14.00">draw_figure_false(svg: list[str], center_x: int, center_y: int, text: str): int</text>
<text text-anchor="start" x="869" y="-233.3" font-family="Times New Roman,serif" font-size="14.00">draw_figure_fork(svg: list[str], center_x: int, center_y: int, text: str, rotation: int): int</text>
<text text-anchor="start" x="869" y="-218.3" font-family="Times New Roman,serif" font-size="14.00">draw_figure_level_end(svg: list[str], center_x: int, center_y: int): None</text>
<text text-anchor="start" x="869" y="-203.3" font-family="Times New Roman,serif" font-size="14.00">draw_figure_level_start(svg: list[str], center_x: int, center_y: int): None</text>
<text text-anchor="start" x="869" y="-188.3" font-family="Times New Roman,serif" font-size="14.00">draw_figure_level_step(svg: list[str], center_x: int, center_y: int): None</text>
<text text-anchor="start" x="869" y="-173.3" font-family="Times New Roman,serif" font-size="14.00">draw_figure_mod(svg: list[str], center_x: int, center_y: int, text: str): int</text>
<text text-anchor="start" x="869" y="-158.3" font-family="Times New Roman,serif" font-size="14.00">draw_figure_normal(svg: list[str], center_x: int, center_y: int, text: str): int</text>
<text text-anchor="start" x="869" y="-143.3" font-family="Times New Roman,serif" font-size="14.00">draw_figure_repeat(svg: list[str], center_x: int, center_y: int, text: str): int</text>
<text text-anchor="start" x="869" y="-128.3" font-family="Times New Roman,serif" font-size="14.00">draw_figure_return(svg: list[str], center_x: int, center_y: int, text: str): int</text>
<text text-anchor="start" x="869" y="-113.3" font-family="Times New Roman,serif" font-size="14.00">draw_figure_true(svg: list[str], center_x: int, center_y: int, text: str): int</text>
<text text-anchor="start" x="869" y="-98.3" font-family="Times New Roman,serif" font-size="14.00">draw_line(svg: list[str], x1: int, y1: int, x2: int, y2: int, color: str): None</text>
<text text-anchor="start" x="869" y="-83.3" font-family="Times New Roman,serif" font-size="14.00">draw_line_h(svg: list[str], center_x: int, center_y: int, length: int, color: str): None</text>
<text text-anchor="start" x="869" y="-68.3" font-family="Times New Roman,serif" font-size="14.00">draw_line_v(svg: list[str], center_x: int, center_y: int, length: int, color: str): None</text>
<text text-anchor="start" x="869" y="-53.3" font-family="Times New Roman,serif" font-size="14.00">draw_string(svg: list[str], center_x: int, center_y: int, text: str, font_size: int, rotate: int): int</text>
<text text-anchor="start" x="869" y="-38.3" font-family="Times New Roman,serif" font-size="14.00">draw_text(svg: list[str], center_x: int, center_y: int, text: str, font_size: int, rotate: int): int</text>
<text text-anchor="start" x="869" y="-23.3" font-family="Times New Roman,serif" font-size="14.00">get_string_bytes(string: str): int</text>
<text text-anchor="start" x="869" y="-8.3" font-family="Times New Roman,serif" font-size="14.00">get_text_width(text: str): int</text>
</g>
<!-- src.draw_svg.DrawSvg&#45;&gt;src.draw_svg.DrawFigure -->
<g id="edge4" class="edge">
<title>src.draw_svg.DrawSvg&#45;&gt;src.draw_svg.DrawFigure</title>
<path fill="none" stroke="black" d="M1118.5,-429.93C1118.5,-455.71 1118.5,-479.69 1118.5,-499.03"/>
<polygon fill="none" stroke="black" points="1118.5,-499.03 1122.5,-505.03 1118.5,-511.03 1114.5,-505.03 1118.5,-499.03"/>
<text text-anchor="middle" x="1146" y="-451.8" font-family="Times New Roman,serif" font-size="14.00" fill="green">draw_svg</text>
</g>
<!-- src.parse_file.FileParse -->
<g id="node7" class="node">
<title>src.parse_file.FileParse</title>
<polygon fill="none" stroke="black" points="1394,-164.6 1394,-265.4 1765,-265.4 1765,-164.6 1394,-164.6"/>
<text text-anchor="start" x="1553.5" y="-250.2" font-family="Times New Roman,serif" font-size="14.00">FileParse</text>
<polyline fill="none" stroke="black" points="1394,-242.4 1765,-242.4 "/>
<polyline fill="none" stroke="black" points="1394,-217.6 1765,-217.6 "/>
<text text-anchor="start" x="1402" y="-202.4" font-family="Times New Roman,serif" font-size="14.00">convert_text2lines(text: str): list[str]</text>
<text text-anchor="start" x="1402" y="-187.4" font-family="Times New Roman,serif" font-size="14.00">get_module_sections(text_lines: list[str]): list[tuple[str, list[str]]]</text>
<text text-anchor="start" x="1402" y="-172.4" font-family="Times New Roman,serif" font-size="14.00">read_file(file_path: str): str</text>
</g>
<!-- src.define.InOutData -->
<g id="node8" class="node">
<title>src.define.InOutData</title>
<polygon fill="none" stroke="black" points="1783,-165.5 1783,-264.5 1956,-264.5 1956,-165.5 1783,-165.5"/>
<text text-anchor="start" x="1840.5" y="-249.3" font-family="Times New Roman,serif" font-size="14.00">InOutData</text>
<polyline fill="none" stroke="black" points="1783,-241.5 1956,-241.5 "/>
<text text-anchor="start" x="1791" y="-226.3" font-family="Times New Roman,serif" font-size="14.00">in_data_list : list[DataInfo]</text>
<text text-anchor="start" x="1791" y="-211.3" font-family="Times New Roman,serif" font-size="14.00">out_data_list : list[DataInfo]</text>
<text text-anchor="start" x="1791" y="-196.3" font-family="Times New Roman,serif" font-size="14.00">process_level : int</text>
<polyline fill="none" stroke="black" points="1783,-188.5 1956,-188.5 "/>
<text text-anchor="start" x="1867.5" y="-173.3" font-family="Times New Roman,serif" font-size="14.00"> </text>
</g>
<!-- src.define.LineInfo -->
<g id="node10" class="node">
<title>src.define.LineInfo</title>
<polygon fill="none" stroke="black" points="343,-113 343,-317 528,-317 528,-113 343,-113"/>
<text text-anchor="start" x="411.5" y="-301.8" font-family="Times New Roman,serif" font-size="14.00">LineInfo</text>
<polyline fill="none" stroke="black" points="343,-294 528,-294 "/>
<text text-anchor="start" x="351" y="-278.8" font-family="Times New Roman,serif" font-size="14.00">DEFAULT_VALUE : int</text>
<text text-anchor="start" x="351" y="-263.8" font-family="Times New Roman,serif" font-size="14.00">before_no : int</text>
<text text-anchor="start" x="351" y="-248.8" font-family="Times New Roman,serif" font-size="14.00">iodata : InOutData | None</text>
<text text-anchor="start" x="351" y="-233.8" font-family="Times New Roman,serif" font-size="14.00">level : LineLevel | None</text>
<text text-anchor="start" x="351" y="-218.8" font-family="Times New Roman,serif" font-size="14.00">next_no : int</text>
<text text-anchor="start" x="351" y="-203.8" font-family="Times New Roman,serif" font-size="14.00">no : int</text>
<text text-anchor="start" x="351" y="-188.8" font-family="Times New Roman,serif" font-size="14.00">text_clean : str</text>
<text text-anchor="start" x="351" y="-173.8" font-family="Times New Roman,serif" font-size="14.00">text_org : str</text>
<text text-anchor="start" x="351" y="-158.8" font-family="Times New Roman,serif" font-size="14.00">text_typeless : str</text>
<text text-anchor="start" x="351" y="-143.8" font-family="Times New Roman,serif" font-size="14.00">type : LineTypeFormat | None</text>
<polyline fill="none" stroke="black" points="343,-136 528,-136 "/>
<text text-anchor="start" x="433.5" y="-120.8" font-family="Times New Roman,serif" font-size="14.00"> </text>
</g>
<!-- src.define.LineInfo&#45;&gt;src.define.DiagramElement -->
<g id="edge3" class="edge">
<title>src.define.LineInfo&#45;&gt;src.define.DiagramElement</title>
<path fill="none" stroke="black" d="M435.5,-317.4C435.5,-366.34 435.5,-424.07 435.5,-469.14"/>
<polygon fill="black" stroke="black" points="435.5,-469.2 439.5,-475.2 435.5,-481.2 431.5,-475.2 435.5,-469.2"/>
<text text-anchor="middle" x="460" y="-451.8" font-family="Times New Roman,serif" font-size="14.00" fill="green">line_info</text>
</g>
<!-- src.line_level.LineLevel -->
<g id="node11" class="node">
<title>src.line_level.LineLevel</title>
<polygon fill="none" stroke="black" points="1974,-143 1974,-287 2135,-287 2135,-143 1974,-143"/>
<text text-anchor="start" x="2027" y="-271.8" font-family="Times New Roman,serif" font-size="14.00">LineLevel</text>
<polyline fill="none" stroke="black" points="1974,-264 2135,-264 "/>
<text text-anchor="start" x="1993" y="-248.8" font-family="Times New Roman,serif" font-size="14.00">LEVEL_ERROR : int</text>
<text text-anchor="start" x="1993" y="-233.8" font-family="Times New Roman,serif" font-size="14.00">LEVEL_MAX : int</text>
<text text-anchor="start" x="1993" y="-218.8" font-family="Times New Roman,serif" font-size="14.00">LEVEL_MIN : int</text>
<text text-anchor="start" x="1993" y="-203.8" font-family="Times New Roman,serif" font-size="14.00">LEVEL_NONE : int</text>
<text text-anchor="start" x="1993" y="-188.8" font-family="Times New Roman,serif" font-size="14.00">TAB2SPACE : int</text>
<text text-anchor="start" x="1993" y="-173.8" font-family="Times New Roman,serif" font-size="14.00">value : int</text>
<polyline fill="none" stroke="black" points="1974,-166 2135,-166 "/>
<text text-anchor="start" x="1982" y="-150.8" font-family="Times New Roman,serif" font-size="14.00">get_line_level(line: str): int</text>
</g>
<!-- src.line_type.LineType -->
<g id="node12" class="node">
<title>src.line_type.LineType</title>
<polygon fill="none" stroke="black" points="2153.5,-179.6 2153.5,-250.4 2451.5,-250.4 2451.5,-179.6 2153.5,-179.6"/>
<text text-anchor="start" x="2275.5" y="-235.2" font-family="Times New Roman,serif" font-size="14.00">LineType</text>
<polyline fill="none" stroke="black" points="2153.5,-227.4 2451.5,-227.4 "/>
<polyline fill="none" stroke="black" points="2153.5,-202.6 2451.5,-202.6 "/>
<text text-anchor="start" x="2161.5" y="-187.4" font-family="Times New Roman,serif" font-size="14.00">get_line_type(line: str): tuple[LineTypeFormat, str]</text>
</g>
<!-- src.line_type.LineTypeDefine -->
<g id="node13" class="node">
<title>src.line_type.LineTypeDefine</title>
<polygon fill="none" stroke="black" points="2469.5,-164.6 2469.5,-265.4 2863.5,-265.4 2863.5,-164.6 2469.5,-164.6"/>
<text text-anchor="start" x="2621.5" y="-250.2" font-family="Times New Roman,serif" font-size="14.00">LineTypeDefine</text>
<polyline fill="none" stroke="black" points="2469.5,-242.4 2863.5,-242.4 "/>
<polyline fill="none" stroke="black" points="2469.5,-217.6 2863.5,-217.6 "/>
<text text-anchor="start" x="2477.5" y="-202.4" font-family="Times New Roman,serif" font-size="14.00">get_all_formats(): list[LineTypeFormat]</text>
<text text-anchor="start" x="2477.5" y="-187.4" font-family="Times New Roman,serif" font-size="14.00">get_format_by_type(type_enum: LineTypeEnum): LineTypeFormat</text>
<text text-anchor="start" x="2477.5" y="-172.4" font-family="Times New Roman,serif" font-size="14.00">get_type_by_format(format_str: str): LineTypeEnum | None</text>
</g>
<!-- src.line_type.LineTypeEnum -->
<g id="node14" class="node">
<title>src.line_type.LineTypeEnum</title>
<polygon fill="none" stroke="black" points="2881.5,-180.5 2881.5,-249.5 2983.5,-249.5 2983.5,-180.5 2881.5,-180.5"/>
<text text-anchor="start" x="2889.5" y="-234.3" font-family="Times New Roman,serif" font-size="14.00">LineTypeEnum</text>
<polyline fill="none" stroke="black" points="2881.5,-226.5 2983.5,-226.5 "/>
<text text-anchor="start" x="2917.5" y="-211.3" font-family="Times New Roman,serif" font-size="14.00">name</text>
<polyline fill="none" stroke="black" points="2881.5,-203.5 2983.5,-203.5 "/>
<text text-anchor="start" x="2930.5" y="-188.3" font-family="Times New Roman,serif" font-size="14.00"> </text>
</g>
<!-- src.line_type.LineTypeFormat -->
<g id="node15" class="node">
<title>src.line_type.LineTypeFormat</title>
<polygon fill="none" stroke="black" points="3001.5,-173 3001.5,-257 3111.5,-257 3111.5,-173 3001.5,-173"/>
<text text-anchor="start" x="3009.5" y="-241.8" font-family="Times New Roman,serif" font-size="14.00">LineTypeFormat</text>
<polyline fill="none" stroke="black" points="3001.5,-234 3111.5,-234 "/>
<text text-anchor="start" x="3009.5" y="-218.8" font-family="Times New Roman,serif" font-size="14.00">type_format : str</text>
<text text-anchor="start" x="3009.5" y="-203.8" font-family="Times New Roman,serif" font-size="14.00">type_value : int</text>
<polyline fill="none" stroke="black" points="3001.5,-196 3111.5,-196 "/>
<text text-anchor="start" x="3054.5" y="-180.8" font-family="Times New Roman,serif" font-size="14.00"> </text>
</g>
<!-- src.define.Process2Data -->
<g id="node16" class="node">
<title>src.define.Process2Data</title>
<polygon fill="none" stroke="black" points="3130,-158 3130,-272 3349,-272 3349,-158 3130,-158"/>
<text text-anchor="start" x="3200.5" y="-256.8" font-family="Times New Roman,serif" font-size="14.00">Process2Data</text>
<polyline fill="none" stroke="black" points="3130,-249 3349,-249 "/>
<text text-anchor="start" x="3138" y="-233.8" font-family="Times New Roman,serif" font-size="14.00">between_process_data : Line | None</text>
<text text-anchor="start" x="3138" y="-218.8" font-family="Times New Roman,serif" font-size="14.00">color : str</text>
<text text-anchor="start" x="3138" y="-203.8" font-family="Times New Roman,serif" font-size="14.00">enter_to_data : Line | None</text>
<text text-anchor="start" x="3138" y="-188.8" font-family="Times New Roman,serif" font-size="14.00">exit_from_process : Line | None</text>
<polyline fill="none" stroke="black" points="3130,-181 3349,-181 "/>
<text text-anchor="start" x="3237.5" y="-165.8" font-family="Times New Roman,serif" font-size="14.00"> </text>
</g>
<!-- src.render.SVGRenderer -->
<g id="node17" class="node">
<title>src.render.SVGRenderer</title>
<polygon fill="none" stroke="black" points="3367,-68 3367,-362 3868,-362 3868,-68 3367,-68"/>
<text text-anchor="start" x="3577.5" y="-346.8" font-family="Times New Roman,serif" font-size="14.00">SVGRenderer</text>
<polyline fill="none" stroke="black" points="3367,-339 3868,-339 "/>
<text text-anchor="start" x="3504.5" y="-323.8" font-family="Times New Roman,serif" font-size="14.00">LINE_OFFSET : int</text>
<text text-anchor="start" x="3504.5" y="-308.8" font-family="Times New Roman,serif" font-size="14.00">color_table : list</text>
<text text-anchor="start" x="3504.5" y="-293.8" font-family="Times New Roman,serif" font-size="14.00">data_elements : list[DiagramElement]</text>
<text text-anchor="start" x="3504.5" y="-278.8" font-family="Times New Roman,serif" font-size="14.00">data_info_list : list[LineInfo]</text>
<text text-anchor="start" x="3504.5" y="-263.8" font-family="Times New Roman,serif" font-size="14.00">draw_fig</text>
<text text-anchor="start" x="3504.5" y="-248.8" font-family="Times New Roman,serif" font-size="14.00">draw_svg</text>
<text text-anchor="start" x="3504.5" y="-233.8" font-family="Times New Roman,serif" font-size="14.00">process_elements : list[DiagramElement]</text>
<text text-anchor="start" x="3504.5" y="-218.8" font-family="Times New Roman,serif" font-size="14.00">process_info_list : list[LineInfo]</text>
<text text-anchor="start" x="3504.5" y="-203.8" font-family="Times New Roman,serif" font-size="14.00">svg : list[str]</text>
<polyline fill="none" stroke="black" points="3367,-196 3868,-196 "/>
<text text-anchor="start" x="3375" y="-180.8" font-family="Times New Roman,serif" font-size="14.00">connect_process2data(): None</text>
<text text-anchor="start" x="3375" y="-165.8" font-family="Times New Roman,serif" font-size="14.00">finish_svg(width: int, height: int): str</text>
<text text-anchor="start" x="3375" y="-150.8" font-family="Times New Roman,serif" font-size="14.00">render(): str</text>
<text text-anchor="start" x="3375" y="-135.8" font-family="Times New Roman,serif" font-size="14.00">render_data(): tuple[int, int]</text>
<text text-anchor="start" x="3375" y="-120.8" font-family="Times New Roman,serif" font-size="14.00">render_line_enter_to_data(): None</text>
<text text-anchor="start" x="3375" y="-105.8" font-family="Times New Roman,serif" font-size="14.00">render_line_exit_from_process(process_end_x: int): int</text>
<text text-anchor="start" x="3375" y="-90.8" font-family="Times New Roman,serif" font-size="14.00">render_process(): tuple[int, int]</text>
<text text-anchor="start" x="3375" y="-75.8" font-family="Times New Roman,serif" font-size="14.00">set_elements(start_x: int, start_y: int, line_info_list: list[LineInfo]): list[DiagramElement]</text>
</g>
</g>
</svg>
