<?xml version="1.0" encoding="UTF-8" standalone="no"?>
<!DOCTYPE svg PUBLIC "-//W3C//DTD SVG 1.1//EN"
 "http://www.w3.org/Graphics/SVG/1.1/DTD/svg11.dtd">
<!-- Generated by graphviz version 2.49.0 (20210828.1703)
 -->
<!-- Title: packages Pages: 1 -->
<svg width="407pt" height="332pt"
 viewBox="0.00 0.00 406.50 332.00" xmlns="http://www.w3.org/2000/svg" xmlns:xlink="http://www.w3.org/1999/xlink">
<g id="graph0" class="graph" transform="scale(1 1) rotate(0) translate(4 328)">
<title>packages</title>
<polygon fill="white" stroke="transparent" points="-4,4 -4,-328 402.5,-328 402.5,4 -4,4"/>
<!-- src -->
<g id="node1" class="node">
<title>src</title>
<polygon fill="none" stroke="black" points="119.5,-36 65.5,-36 65.5,0 119.5,0 119.5,-36"/>
<text text-anchor="middle" x="92.5" y="-14.3" font-family="Times New Roman,serif" font-size="14.00">src</text>
</g>
<!-- src.define -->
<g id="node2" class="node">
<title>src.define</title>
<polygon fill="none" stroke="black" points="182,-252 111,-252 111,-216 182,-216 182,-252"/>
<text text-anchor="middle" x="146.5" y="-230.3" font-family="Times New Roman,serif" font-size="14.00">src.define</text>
</g>
<!-- src.line_level -->
<g id="node4" class="node">
<title>src.line_level</title>
<polygon fill="none" stroke="black" points="89,-324 0,-324 0,-288 89,-288 89,-324"/>
<text text-anchor="middle" x="44.5" y="-302.3" font-family="Times New Roman,serif" font-size="14.00">src.line_level</text>
</g>
<!-- src.define&#45;&gt;src.line_level -->
<g id="edge1" class="edge">
<title>src.define&#45;&gt;src.line_level</title>
<path fill="none" stroke="black" d="M121.55,-252.12C108.46,-261.11 92.24,-272.24 78.06,-281.97"/>
<polygon fill="black" stroke="black" points="69.55,-287.81 75.25,-278.44 73.67,-284.98 77.79,-282.15 77.79,-282.15 77.79,-282.15 73.67,-284.98 80.34,-285.86 69.55,-287.81 69.55,-287.81"/>
</g>
<!-- src.line_type -->
<g id="node5" class="node">
<title>src.line_type</title>
<polygon fill="none" stroke="black" points="254.5,-324 166.5,-324 166.5,-288 254.5,-288 254.5,-324"/>
<text text-anchor="middle" x="210.5" y="-302.3" font-family="Times New Roman,serif" font-size="14.00">src.line_type</text>
</g>
<!-- src.define&#45;&gt;src.line_type -->
<g id="edge2" class="edge">
<title>src.define&#45;&gt;src.line_type</title>
<path fill="none" stroke="black" d="M162.32,-252.3C170.07,-260.78 179.54,-271.14 188.02,-280.42"/>
<polygon fill="black" stroke="black" points="194.86,-287.9 184.79,-283.55 191.49,-284.21 188.11,-280.52 188.11,-280.52 188.11,-280.52 191.49,-284.21 191.44,-277.48 194.86,-287.9 194.86,-287.9"/>
</g>
<!-- src.draw_svg -->
<g id="node3" class="node">
<title>src.draw_svg</title>
<polygon fill="none" stroke="black" points="250.5,-180 158.5,-180 158.5,-144 250.5,-144 250.5,-180"/>
<text text-anchor="middle" x="204.5" y="-158.3" font-family="Times New Roman,serif" font-size="14.00">src.draw_svg</text>
</g>
<!-- src.draw_svg&#45;&gt;src.define -->
<g id="edge3" class="edge">
<title>src.draw_svg&#45;&gt;src.define</title>
<path fill="none" stroke="black" d="M190.16,-180.3C183.21,-188.7 174.73,-198.93 167.1,-208.14"/>
<polygon fill="black" stroke="black" points="160.67,-215.9 163.59,-205.32 163.86,-212.05 167.05,-208.2 167.05,-208.2 167.05,-208.2 163.86,-212.05 170.52,-211.07 160.67,-215.9 160.67,-215.9"/>
</g>
<!-- src.draw_svg&#45;&gt;src.line_type -->
<g id="edge4" class="edge">
<title>src.draw_svg&#45;&gt;src.line_type</title>
<path fill="none" stroke="black" d="M205.22,-180.13C206.25,-204.33 208.12,-248.79 209.34,-277.61"/>
<polygon fill="black" stroke="black" points="209.77,-287.81 204.86,-278.01 209.56,-282.82 209.35,-277.82 209.35,-277.82 209.35,-277.82 209.56,-282.82 213.85,-277.63 209.77,-287.81 209.77,-287.81"/>
</g>
<!-- src.main -->
<g id="node6" class="node">
<title>src.main</title>
<polygon fill="none" stroke="black" points="201.5,-36 137.5,-36 137.5,0 201.5,0 201.5,-36"/>
<text text-anchor="middle" x="169.5" y="-14.3" font-family="Times New Roman,serif" font-size="14.00">src.main</text>
</g>
<!-- src.parse -->
<g id="node7" class="node">
<title>src.parse</title>
<polygon fill="none" stroke="black" points="102.5,-180 34.5,-180 34.5,-144 102.5,-144 102.5,-180"/>
<text text-anchor="middle" x="68.5" y="-158.3" font-family="Times New Roman,serif" font-size="14.00">src.parse</text>
</g>
<!-- src.main&#45;&gt;src.parse -->
<g id="edge5" class="edge">
<title>src.main&#45;&gt;src.parse</title>
<path fill="none" stroke="black" d="M153.43,-36.08C144.24,-46.19 132.74,-59.44 123.5,-72 108.56,-92.31 93.65,-116.76 83.13,-134.89"/>
<polygon fill="black" stroke="black" points="78.06,-143.74 79.13,-132.83 80.54,-139.4 83.03,-135.07 83.03,-135.07 83.03,-135.07 80.54,-139.4 86.94,-137.31 78.06,-143.74 78.06,-143.74"/>
</g>
<!-- src.parse_file -->
<g id="node8" class="node">
<title>src.parse_file</title>
<polygon fill="none" stroke="black" points="398.5,-252 306.5,-252 306.5,-216 398.5,-216 398.5,-252"/>
<text text-anchor="middle" x="352.5" y="-230.3" font-family="Times New Roman,serif" font-size="14.00">src.parse_file</text>
</g>
<!-- src.main&#45;&gt;src.parse_file -->
<g id="edge6" class="edge">
<title>src.main&#45;&gt;src.parse_file</title>
<path fill="none" stroke="black" d="M184.79,-36.28C206,-60.3 245.46,-105.2 278.5,-144 296.8,-165.49 317.3,-190.2 332.08,-208.12"/>
<polygon fill="black" stroke="black" points="338.43,-215.84 328.6,-210.98 335.25,-211.98 332.08,-208.12 332.08,-208.12 332.08,-208.12 335.25,-211.98 335.55,-205.26 338.43,-215.84 338.43,-215.84"/>
</g>
<!-- src.render -->
<g id="node9" class="node">
<title>src.render</title>
<polygon fill="none" stroke="black" points="206,-108 133,-108 133,-72 206,-72 206,-108"/>
<text text-anchor="middle" x="169.5" y="-86.3" font-family="Times New Roman,serif" font-size="14.00">src.render</text>
</g>
<!-- src.main&#45;&gt;src.render -->
<g id="edge7" class="edge">
<title>src.main&#45;&gt;src.render</title>
<path fill="none" stroke="black" d="M169.5,-36.3C169.5,-44.02 169.5,-53.29 169.5,-61.89"/>
<polygon fill="black" stroke="black" points="169.5,-71.9 165,-61.9 169.5,-66.9 169.5,-61.9 169.5,-61.9 169.5,-61.9 169.5,-66.9 174,-61.9 169.5,-71.9 169.5,-71.9"/>
</g>
<!-- src.parse&#45;&gt;src.define -->
<g id="edge8" class="edge">
<title>src.parse&#45;&gt;src.define</title>
<path fill="none" stroke="black" d="M87.78,-180.3C97.42,-188.95 109.23,-199.55 119.73,-208.97"/>
<polygon fill="black" stroke="black" points="127.44,-215.9 116.99,-212.57 123.72,-212.56 120,-209.22 120,-209.22 120,-209.22 123.72,-212.56 123,-205.87 127.44,-215.9 127.44,-215.9"/>
</g>
<!-- src.parse&#45;&gt;src.line_level -->
<g id="edge9" class="edge">
<title>src.parse&#45;&gt;src.line_level</title>
<path fill="none" stroke="black" d="M65.61,-180.13C61.51,-204.33 54,-248.79 49.13,-277.61"/>
<polygon fill="black" stroke="black" points="47.41,-287.81 44.63,-277.2 48.24,-282.88 49.07,-277.95 49.07,-277.95 49.07,-277.95 48.24,-282.88 53.51,-278.7 47.41,-287.81 47.41,-287.81"/>
</g>
<!-- src.parse&#45;&gt;src.line_type -->
<g id="edge10" class="edge">
<title>src.parse&#45;&gt;src.line_type</title>
<path fill="none" stroke="black" d="M70.92,-180.05C74.5,-199.57 82.9,-231.49 101.5,-252 116.32,-268.34 137.28,-280.19 156.87,-288.48"/>
<polygon fill="black" stroke="black" points="166.35,-292.27 155.39,-292.73 161.7,-290.41 157.06,-288.55 157.06,-288.55 157.06,-288.55 161.7,-290.41 158.73,-284.38 166.35,-292.27 166.35,-292.27"/>
</g>
<!-- src.parse_file&#45;&gt;src.line_type -->
<g id="edge11" class="edge">
<title>src.parse_file&#45;&gt;src.line_type</title>
<path fill="none" stroke="black" d="M317.76,-252.12C298.68,-261.53 274.82,-273.29 254.45,-283.33"/>
<polygon fill="black" stroke="black" points="245.37,-287.81 252.35,-279.35 249.86,-285.6 254.34,-283.39 254.34,-283.39 254.34,-283.39 249.86,-285.6 256.33,-287.42 245.37,-287.81 245.37,-287.81"/>
</g>
<!-- src.render&#45;&gt;src.define -->
<g id="edge12" class="edge">
<title>src.render&#45;&gt;src.define</title>
<path fill="none" stroke="black" d="M161.35,-108.24C156.97,-118.41 151.97,-131.66 149.5,-144 145.44,-164.34 144.81,-187.8 145.13,-205.53"/>
<polygon fill="black" stroke="black" points="145.43,-215.75 140.64,-205.88 145.28,-210.75 145.14,-205.75 145.14,-205.75 145.14,-205.75 145.28,-210.75 149.63,-205.62 145.43,-215.75 145.43,-215.75"/>
</g>
<!-- src.render&#45;&gt;src.draw_svg -->
<g id="edge13" class="edge">
<title>src.render&#45;&gt;src.draw_svg</title>
<path fill="none" stroke="black" d="M178.15,-108.3C182.14,-116.27 186.95,-125.9 191.37,-134.74"/>
<polygon fill="black" stroke="black" points="195.95,-143.9 187.45,-136.96 193.71,-139.42 191.48,-134.95 191.48,-134.95 191.48,-134.95 193.71,-139.42 195.5,-132.94 195.95,-143.9 195.95,-143.9"/>
</g>
<!-- src.render&#45;&gt;src.line_level -->
<g id="edge14" class="edge">
<title>src.render&#45;&gt;src.line_level</title>
<path fill="none" stroke="black" d="M132.94,-93.18C98.79,-97.38 49.58,-109.48 25.5,-144 -2.56,-184.23 16.39,-244.31 31.35,-278.56"/>
<polygon fill="black" stroke="black" points="35.62,-287.91 27.37,-280.68 33.54,-283.36 31.47,-278.81 31.47,-278.81 31.47,-278.81 33.54,-283.36 35.56,-276.94 35.62,-287.91 35.62,-287.91"/>
</g>
<!-- src.render&#45;&gt;src.line_type -->
<g id="edge15" class="edge">
<title>src.render&#45;&gt;src.line_type</title>
<path fill="none" stroke="black" d="M206.32,-102.58C225.83,-110.81 248.07,-124.01 259.5,-144 284.66,-188.01 253.21,-246.31 230.33,-279.32"/>
<polygon fill="black" stroke="black" points="224.44,-287.54 226.61,-276.79 227.35,-283.47 230.27,-279.41 230.27,-279.41 230.27,-279.41 227.35,-283.47 233.92,-282.03 224.44,-287.54 224.44,-287.54"/>
</g>
</g>
</svg>
